<svg width="3671" height="510" xmlns="http://www.w3.org/2000/svg">

 <g>
  <title>background</title>
  <rect fill="none" id="canvas_background" height="402" width="582" y="-1" x="-1"/>
 </g>
 <g>
  <title>Layer 1</title>
  <g id="svg_1" fill-rule="evenodd" fill="none">
   <g id="svg_2">
    <path id="svg_3" d="m0.5,0.5l359,0l0,509l-359,0l0,-509z" class="cell-container"/>
    <path id="svg_4" d="m359.5,0.5l359,0l0,509l-359,0l0,-509z" class="cell-container"/>
    <path id="svg_5" d="m718.5,0.5l359,0l0,509l-359,0l0,-509z" class="cell-container"/>
    <path id="svg_6" d="m1077.5,0.5l370,0l0,509l-370,0l0,-509z" class="cell-container"/>
    <path id="svg_7" d="m1448.5,0.5l370,0l0,509l-370,0l0,-509z" class="cell-container"/>
    <path id="svg_8" d="m1818.5,0.5l370,0l0,509l-370,0l0,-509z" class="cell-container"/>
    <path id="svg_9" d="m2189.5,0.5l370,0l0,509l-370,0l0,-509z" class="cell-container"/>
    <path id="svg_10" d="m2559.5,0.5l370,0l0,509l-370,0l0,-509z" class="cell-container"/>
    <path id="svg_11" d="m2930.5,0.5l370,0l0,509l-370,0l0,-509z" class="cell-container"/>
    <path id="svg_12" d="m3300.5,0.5l370,0l0,509l-370,0l0,-509z" class="cell-container"/>
    <path id="svg_13" d="m51,288.38c13.33,-5.34 35.33,-9.34 66,-12c0,0 18.44,-9.95 55,-15c1.04,-0.15 7.5,-8 36,-13c16,0 21,-3.88 30,5c3.53,-13.53 19.13,-16.58 29,-15c6.9,1.1 11.3,5.93 12,8c4,12 21,5 30,12c-23,6 -23,7 -32,11c-16,14 -31,31 -47,31c-16,4 -32.83,5.33 -50.5,4c-1,4 -3.5,6.66 -7.5,8c-6,2 -1,-9 -4,-12s-3,10 -17,18c-1,-14 -5,-10 -5,-18s4,13 -17,18c-14,3.33 -31.67,4 -53,2c26,-8.67 41.33,-16.34 46,-23c-5,0 -18,-1 -21,-9c-14,-4.5 -30.67,-4.5 -50,0z" fill="#246959"/>
    <path id="svg_14" d="m639,273c0,2.07 -10,3 -16,5c-9,1 -8,8 -14,7s-5,8 -19,14c2,11 21,9 36,19c29,30.62 18,19 37,63c14,28 18,30 27,57c-1,1 -11,-1 -14,-7c-1,5 -5,1 -4,7c-5,-1 -8,-8 -12,-11c-4,-1 1,7 -2,8c-4,0 -5,-8 -9,-8c-4,1 1,6 -2,7c-33,-30 -43,-21 -43,-36c-8,10 -10,-2 -19,3c-4,-5 -6,-10 -2,-17c-1,-5 -7,5 -11,3c-1.33,-6 1,-12.67 7,-20c-6.67,6.67 -14,10 -22,10c1,-10 -1,-6.5 5,-16c-6,7.5 -13,8 -19,6c-4.43,-2.1 4,-8 2,-11.5c-8,0 -22.76,-0.3 -24,-3.5c-3.26,-8.4 8,-19 4,-25c-3.12,-4.67 -12,9 -15,-3c0,-12 -4.67,-17 -14,-15c-8.67,-1.33 -19.33,-1.33 -32,0c-19,2 -27,-5 -58,-5c10,-5 9,-13 27,-13c-21,-3 -10,-10 -45,-13c30,-8 32,0 54,7c68,-7 22,-15 94,-22c14,-2 36,-4 58,2c5,-2 6,-5 15,-6c8,0 12.67,3.67 14,11c10.67,0.72 16,1.72 16,3z" fill="#246959"/>
    <path id="svg_15" d="m729,299.03c32,-14 56,-26 90,-40c20,-6 37,-5 56,-8c28,0 17,-8 55,-3c8,-1 10.95,-7.5 19,-7c8.67,0 13.33,2.66 14,8l26,5l-24,5c-2.67,5.33 -8,8.33 -16,9c-12,12 -11,18 -29,21c22,13 23,17 64,38c13,11 13,15 17,31c4,15.98 14.06,25.74 21,35c26,46 23,59 45,80c-11,-1 -23,-8 -28,-13c-4,-1 -3,5 -3,8c-6,-2 -8,-15 -16,-13c-3.46,0 4,5 0,13c-13,-5 -14,-7 -16,-13c-3,-4 -7,-11 -3,-12c-2,8 0,12 -6,12c-5,-10 -7,-3 -11,-12c-8,-14 -17,-12 -17,-29c-4,0 -7,4 -10,9c-3,-4 0,-9 -1,-12c-2,0.66 -4.33,1.66 -7,3c-2,-12.67 -2,-21.67 0,-27c-8,2 -4,6 -15,10c-5,-6 -4,-12 -2,-21c-5,6 -5,-3 -12,2c-9,-9 -10,-18 -25,-18c-5,-12 -3,-20 -11,-22c-3.23,0.86 -4,10 -6,7s-2,-10 -5,-12c-2,-3 -6,6 -9,3c0,-5 -2,-11 -6,-14c-3,-4 -5,0 -10,3c-2,-5 -2,-9 -1,-14c-4,-1 -14,5 -12,-2c0,-7 -4,-4 -8,-4c-5,0 1,-5 -1,-6c-5,-2 -13,2 -21,6c-5,-2 4,-10 0,-10c-31,-1 -38,7 -76,4z" fill="#246959"/>
    <path id="svg_16" d="m1367,254.1l-18,-3c-2,-6 -5.33,-9.35 -10,-10c-14,-1 -17,7 -22,10c-21,-3 -19,-1 -35,0c-30,-5 -36,4 -50,7c-36,5 -33,9 -48,16c-34,18 -41,19 -75,29c6.67,0.65 14,0 22,-2c-14.67,4 -21,6.32 -19,7c31,-5 29.02,4.23 52,0c11,-3 10,-9 13,-12c2,7 1,7 2,13c16,-3 21,-2 30,-2c3,4 -3.66,8.6 0,10c4,-1.35 9.33,-2.68 16,-4c-4,4.65 -5.67,8.32 -5,11c15,2 12,4 24,1c-11,4 -11,4 -16,10c16,3 14,1 24,2c-4,4 -3,8 -1,11c6,-3 9.53,-4.5 12,-3c-3,3.44 -5,7 -2,9c10,-2 12.4,-5.28 15,-2c-3,8 0,11 1,22c5,0 10,-2 15,-4c1,8 -3,8 -3,16c6,3 13,-3 17,-1c-7,4 -7,6 -8,9c7,3 6,2 14,0c-5.33,4 -7,7.65 -5,11c5.33,-3.35 8.33,-3.35 9,0c-2,6 0,7 1,15c10,-5 10,2 21,5c5.97,3.27 6.4,10.54 11,14c9,6.74 20,9 19,9s-9,-11 -5,-10c3.33,4 7.67,8.32 13,13c0,-8 -0.67,-13.68 -2,-17c9,14 12,12 28,23c3,-13 -6,-18 -15,-28c19,22 19,20 30,24c-24,-30 -20,-26 -29,-53c-14,-26 -24,-61 -39,-75c-18,-12 -19,-17 -38,-26c-3.33,-4.68 -7.33,-8 -12,-10c12,-2 21.33,-5.68 28,-11c2,-5 7,-5 11,-9c6,-1.35 9.67,-4.35 11,-9l18,-6z" fill="#246959"/>
    <path id="svg_17" d="m1751,256c-11,-1 -12,-4 -24,-6c-3,-6 -4,-5 -10,-7c-14,0 -21,7 -29,12c-24,-3 -31,-1 -44,2c-46,12 -43,12 -70,23c-46,27 -39,30 -58,40c23,6 31,-3 47,-7c-6.67,2.67 -8.67,6 -6,10c6.67,-2.67 11,-3.67 13,-3c-5,2 -9.7,10.57 -5,10c27,-2 30.7,-14.27 46,-15c-4,5 -6,8 -4,13c12,-3 11,-2 18,-4c-2,6 -3,6 0,15c8.5,2 13,-5 13,-5c4,4 0,11 0,20c11,0 11,2 15,0c-2,8 2,8 5,14c4,-8 7,-5 14,-12c-2,13 5,12 6,21c10,-9 11,-11 13,-21c-4,15 2,17 5,28c4,-7 7,-7 8,-16c1,5 3.98,7.87 5,6c3,-10 3.32,-8.12 4,-6c-3,13 2,16 5,27c7,-12 5,-18 5,-19c2,15 15,8 28,33c4,-14 -16,-38 -23,-73c-4,-23 -3,-28 -14,-43c-3,-7 -10,-8 -13,-7c8,-4 7,-8 12,-15c15,-2 11,-5 15,-10c-1,0 5,-4 23,-5z" fill="#246959"/>
    <path id="svg_18" d="m2119.66,270.36c0,-3 -11,-6 -20,-6c-1.34,-2.67 -3.67,-5 -7,-7c-5.34,-2.67 -12.34,-2.67 -21,0c-8,1 -16,-13 -8,-26c7,-3 10,-9 11,-14c-8,-4 -11,-5 -22,-4c-65,4 -85,28 -110,50c-8,7 10,5 18,5c-42,0 -78,41 -72,37s16,6 35,-11c2,-1 -7,5 -15,15c21,-3 21,-6 39,-4c-2,7 3.6,7.22 9,8c4.33,0.62 9.2,-0.44 15,0c12.53,1.4 13,-1 18,-1c6,0 5.35,0.6 9,0c9,-2 7,-3 10,-7c-3,8 1,11 6,21c7,-6 6,-14 6,-19c0,13 -1,9 2,17c6,-5 6,-4 8,-12c-3,10 -1,17 3,28c5,0 6.84,-4.66 10,-3c0,5 0,3 6,13c5,-5 2,3 7,-8c-1,10 4,4 10,18c5,-10 3,-14 -1,-23c6,13 8,12 13,19c2,-19 -1,-23 -7,-36c3,-19 -6,-20 -5,-33.5c8,-10.5 15,2 24,-6.5c7,-1 4,-4 9,-7c8,-5 19,1 20,-3z" fill="#246959"/>
    <path id="svg_19" d="m2485,278.84c-6,-3 -7,-1 -16,-3c1,-5 -4.66,-10 -11,-10c-9.16,0 -9.5,5.2 -21,8c-9,2.2 -12.7,3.03 -18,-2c-24,-15 -11,-19 -32,-44c-9,-7 -12,-11 -4,-21c13,-14 17,-22 17,-32c-4,-7 -85,-3 -113,34c5.06,1.15 16.8,-6.7 20.65,-6c4.35,1 -18.65,13 -9.65,11c9,-2 15,-7 21,-7c2.67,-0.05 -2,2 -3,7c3.78,0.9 9.8,-1.85 16,-3c3.52,-0.65 7.9,0.34 10,0c-4,3 -10,1 -20,17c6,5.5 14,-1.5 20,-1.5c-3,5.5 -11,2.5 -15,20.5c2,4 11,-6 9,-2c0,4 -7,2 -9,18c6,0 8,-7 9,-2c-2,3 -5,3 -5,9c3,3 9,-4 11,-4c-1,2 -6,2 -6,10c-38,9 -49,18 -68,30c7,4.9 23,-5 25,-1c-1.46,3.22 -11,5.9 -28,11c17,2 31,2 42.65,-5.1c10.35,1.1 18.57,-1.9 21.35,-1.9c4,6 0,13 7,15c3,-5 8,-12 9,-15c3,-2 -5,11 3,13c9,0 19,7 36,7c18,0 22,-6 42,-13c12,-1 20,-5 25,-18c3,-8 9,-4 18,-13c2,-2 12,-3 16,-6z" fill="#246959"/>
    <path id="svg_20" d="m2859,275.74c-0.52,-2.35 -8,-3 -20,-5c-6.62,-3.1 -7.68,-9 -14,-9c-13,0 -7.83,6.16 -21,9c-7.7,1.67 -15,2 -20,0s-6.32,-3.7 -10,-6c-19.2,-11.9 -10.17,0.25 -19.17,-20c-10.54,-12 -10.6,-24.55 -6.83,-42c0.97,-4.5 2.27,-8.15 4,-11c6,-9.83 12.67,-30.6 11,-45c-1.4,-12.16 -11,-14 -27,-17c-21,-4 -33,-5 -58,-2c-9,8 -21,5 -33,21c9,-1 7,-3 14,3c8,-4 15.48,-1.3 16,-1c7.16,4.13 -3.54,3.73 1,6c6,0 2,4 0,9c5,-0.5 8,-1 6,4c4.4,3.22 8.36,-3.24 9,1c0.86,5.76 -11.7,9.4 -9,17c18,3 20,5 22,7c-4,1 3,2 -26,11c3,10 14,6 15,16c0,7 -9,4 -12,17c12,2 9,6 23,6c-5,0 -18,4 -26,12c9,2 6,6 14,7c7,3 6,3.36 4,7c-6.5,11.86 -5,15 -20,23s-26.3,15.78 -35,22c-4.63,3.32 -7.48,8.23 -11,12c12,-2 12,-3 15,-2c2,4 1,-3 0,11c6,-5 16,-12 22,-16c5,0 13,-3 17,0c5,0 0,-7 0,-8.96c0,-1.96 3.48,5.8 5,3.96c5,-6 4,-9 3,-14c4,3 1,10.9 6,12c19,6 21,5 42,-1c1.2,-0.07 2.95,-0.92 4.3,-0.96c1.2,1.42 0.7,3 3.7,3.96c1.57,-2.35 4.93,-3.06 6.83,-3.1c0.52,0 -0.24,-0.93 0,-0.86c10,3 17.17,3.96 32.17,0.96c13,-8 24,-5 35,-17c14,-6 14,-10 17,-16c4,-3 9,0 20,-4z" fill="#246959"/>
    <path id="svg_21" d="m3243,286c-8,-3 -7,-2 -17,-4c-7.6,-3.28 -5,-11 -21,-13c-16.1,1.03 -15,14 -31,13c-10.43,-0.65 -13,-7 -21,-11s-13,-5 -19,-12c-13,-42 -1.27,-9.56 -3,-59c-0.27,-7.56 -6,-44 -1,-54c8,-3 4.84,-13.8 0,-22c-32,-34 -40.22,-58.03 -60,-79c-4,-1 5,12 -2,7c-8.8,-5.08 -7,-14 -23,-22c1,5 4,12 2,15c-5,-3 -14,-23 -20,-23c1,4 8,11 8,23c0,4 -14,-6 -9,-1s7,13 9,19c7.25,13.18 22,23 22,22c-3,-1 -17,-12 -26,-11c2,5 8,7 10,17c-2,2 0,3 -8,0c4,19 14,28 35,41c2.6,4.24 -11.1,-4.18 -14,-1c-2.6,2.82 1.67,8.6 5,15c9.17,17.6 18.32,18.92 20,30c-1,4 -9.77,-1.26 -14,2c-2.27,1.74 4.75,5.74 4,10c-0.75,4.24 -9.22,1.68 -8,6c2.48,2.98 -2,12 -1,17s4,6 4,11s7,-2 8,6c5,4 -1,4 -8,12c5,5 10,4 8,14s-7,6 -12,12c-5,7 -3,11 -10,17c-9,8 -15,4 -31,16c-13,7 -14,2 -30,13c18,2 36,12 68,5c5,2 -5,5 -2,7c14,1 16,3 23,0c-4,3 -10.62,8.7 -7,9c8.53,0.74 23.38,-0.95 30,0c8.4,1.2 12.75,5 27,5c7.7,0 16.25,-8.18 21,-7c7.3,1.8 6,2.93 17,0c19.33,-5.15 24,-9 39,-19c8,-12 13,-9 20,-21c11,-2 18,-2 18,-5z" fill="#246959"/>
    <path id="svg_22" d="m3595.2,274c0,-2.56 -5,-4 -13,-7c-4.25,-3.13 0,-8 -10,-10c-17,0 -11.03,8.98 -21,12c-10,-1 -9,-2 -21,1c-4.15,1.04 -3.9,-10.8 -6,-13c-2.97,-3.06 -5,-3 -10,-8c-3,-11 6,-24 3,-45c-1.34,-9.32 -4.68,-21.56 -9,-33c-2.45,-13.1 -2,-10 -13,-23c-21,-28 -37,-37 -47,-67c-4.96,-4.56 -0.68,12.44 -5,11c-7.68,-2.56 -15.4,-19 -19,-19c-2.9,0 7.5,17.9 4,23c-3,4.4 -17,-7.67 -17,-5c0,3.33 8,16 15,19c-4,4 -9.5,-4.6 -11,-1c7,9 1,11 6,24c5.77,12.05 11,8 16,18c-3.62,4.17 -24.5,-6.8 -26,-3c-1.02,2.53 9.7,2.7 17,10c6,6 1.8,13.48 6,16c5,3 2,6 8,13s10,-2 8,8c-0.94,4.66 -4,4.34 -4,9c0,5.34 8,-1 6,5c0,2.57 -4,4 -6,8c0,0.72 7.58,-1.47 8,1c1.08,6.53 -7.23,11.8 -4,17c3.27,5.3 12,4 17,3c-5,4 -13,3.95 -13,9c0,9.45 10,13 4,18c2,5 -5,9 -4,13s5.17,8.47 10,10c3.24,1.03 9,2 6,3c-6,2 -7,-1 -12,3c-4.25,0 -2,-6 -10,-4c-24,4 -60,20 -73,34c-2,3 12,-3 21,-4c-8,3 -20,7 -5,6c11,1 28,0 57,-5c21.46,-0.66 17,7 39,2c11,3 28,6 43,-5c14,-2 15.58,-9.85 33,-23c6,-2 11,-11 14,-17c7.8,-3.53 12,-1 18,-4z" fill="#246959"/>
   </g>
  </g>
 </g>
</svg>