<svg xmlns="http://www.w3.org/2000/svg" version="1.0" width="1161.000000" height="1280.000000" preserveAspectRatio="xMidYMid meet" style=""><rect id="backgroundrect" width="100%" height="100%" x="0" y="0" fill="none" stroke="none"/>
<metadata>
Created by potrace 1.15, written by Peter Selinger 2001-2017
</metadata>

<g class="currentLayer" style=""><title>Layer 1</title><g transform="translate(0,1280) scale(0.10000000149011612,-0.10000000149011612) " fill="#2b7564" stroke="none" id="svg_1" class="" fill-opacity="1">
<path d="M5515.181818008423,12714.000000000002 c-7,-94 -2,-109 54,-187 c34,-47 38,-94 10,-128 l-20,-24 l-7,43 c-6,39 -11,45 -55,68 c-51,25 -89,31 -89,14 c0,-22 31,-83 70,-137 c44,-62 49,-91 24,-153 c-19,-48 -44,-54 -44,-9 c0,42 -47,89 -90,89 l-32,0 l27,46 c15,25 24,51 22,58 c-3,7 -26,16 -52,19 c-41,6 -52,3 -92,-24 c-36,-25 -125,-57 -165,-59 c-4,0 -3,12 2,26 c6,14 10,44 10,66 c0,35 -6,47 -47,87 l-46,46 l-18,-40 c-33,-72 -34,-99 -4,-158 c33,-64 29,-96 -14,-126 l-28,-20 l-7,45 c-6,47 -59,134 -82,134 c-6,0 -19,-11 -28,-25 c-29,-44 -29,-76 -2,-130 c37,-72 34,-92 -30,-181 c-75,-104 -86,-133 -78,-194 c4,-29 3,-50 -3,-50 c-26,0 -123,137 -123,174 c0,9 13,40 30,69 c32,57 31,77 -3,143 c-18,35 -55,70 -64,60 c-4,-3 -9,-44 -11,-91 c-3,-62 -8,-85 -18,-85 c-14,0 -84,96 -84,115 c0,6 14,24 30,40 c17,16 35,46 41,65 c14,46 -2,81 -71,151 l-49,50 l-6,-28 c-3,-15 -12,-53 -20,-83 c-7,-30 -11,-71 -8,-89 l6,-35 l-42,33 c-49,39 -51,58 -11,96 c55,53 62,123 19,207 c-29,57 -46,49 -87,-42 c-20,-44 -39,-80 -43,-80 c-14,0 -59,90 -59,118 c0,25 -9,36 -47,62 c-47,31 -50,32 -132,26 c-46,-3 -86,-7 -89,-10 c-2,-3 1,-19 8,-36 c16,-39 74,-90 103,-90 c75,0 149,-50 162,-111 c10,-46 -1,-47 -39,-3 c-32,37 -37,39 -93,39 c-41,0 -68,-6 -88,-19 l-29,-19 l49,-45 c65,-58 99,-72 183,-72 c61,0 74,-4 111,-31 c47,-34 48,-48 1,-29 c-16,7 -47,12 -69,12 c-42,-1 -145,-47 -136,-61 c3,-5 26,-23 52,-40 c53,-35 89,-39 173,-16 c30,8 67,12 82,9 c26,-5 108,-84 108,-103 c0,-19 -17,-20 -48,0 c-18,10 -45,19 -60,19 c-48,0 -189,-104 -180,-132 c3,-8 33,-16 78,-20 c73,-6 113,1 205,35 c22,8 44,13 49,10 c4,-3 17,-26 29,-52 c11,-25 39,-71 62,-101 c106,-136 108,-215 11,-333 c-19,-24 -44,-64 -55,-90 c-11,-26 -24,-47 -29,-47 c-13,0 -32,71 -32,118 c0,32 7,49 32,77 c21,24 34,52 39,83 c9,57 -7,129 -31,142 c-14,8 -22,0 -45,-43 c-15,-29 -33,-58 -39,-66 c-6,-7 -9,-28 -7,-47 c1,-19 -2,-34 -8,-34 c-12,0 -29,29 -34,57 c-7,39 -49,103 -77,118 c-21,11 -52,15 -98,13 c-90,-4 -93,-21 -18,-94 c45,-43 62,-54 89,-54 c35,0 77,-30 77,-54 c0,-11 -7,-11 -41,1 c-37,12 -44,12 -66,-2 c-27,-18 -40,-46 -49,-107 l-7,-41 l39,7 c21,4 59,16 83,27 c47,21 86,25 96,10 c3,-6 9,-41 14,-78 c5,-39 20,-91 35,-121 c14,-28 26,-56 26,-61 c0,-15 -28,-3 -80,34 c-25,18 -103,65 -175,104 c-140,78 -179,109 -231,185 l-33,50 l39,43 c34,36 40,49 40,85 c0,48 -57,163 -80,163 c-14,0 -34,-68 -48,-160 l-8,-50 l-37,37 c-41,40 -44,55 -22,98 c9,16 18,50 21,75 c7,44 6,45 -59,112 c-82,84 -91,80 -90,-42 c1,-97 -12,-111 -49,-49 c-14,24 -38,44 -70,59 c-46,21 -53,22 -106,10 c-116,-28 -115,-25 -32,-83 c61,-43 80,-52 117,-52 c53,0 59,-23 10,-44 c-21,-8 -40,-27 -50,-49 c-32,-66 -27,-68 109,-36 c97,24 127,22 162,-12 c24,-22 24,-47 1,-40 c-65,16 -90,13 -145,-20 c-58,-35 -82,-63 -64,-74 c6,-4 44,-9 84,-12 c54,-4 86,-1 125,12 c29,9 62,14 74,11 c26,-6 153,-184 140,-196 c-7,-7 -62,-14 -183,-22 c-34,-3 -35,-1 -38,33 c-6,78 -88,108 -181,69 c-28,-13 -50,-28 -48,-33 c9,-28 96,-88 138,-95 c62,-11 57,-31 -25,-87 l-69,-47 l-25,27 c-23,25 -30,27 -80,22 c-41,-4 -62,-12 -81,-31 l-25,-26 l28,-29 c16,-17 42,-33 57,-36 c44,-10 45,-24 6,-60 c-19,-18 -45,-51 -56,-74 c-37,-71 -44,-58 -60,115 c-6,55 -17,129 -25,165 c-8,35 -16,92 -19,127 l-4,62 l33,-6 c27,-5 38,-1 58,19 c34,34 50,96 36,147 c-15,54 -25,57 -44,11 c-15,-39 -58,-80 -64,-62 c-2,5 8,38 22,74 c14,35 26,71 26,81 c0,33 -39,92 -77,119 c-66,45 -73,40 -73,-56 c0,-72 3,-87 26,-120 c26,-38 30,-87 7,-94 c-6,-2 -17,13 -23,34 c-23,71 -69,103 -150,103 c-27,0 -50,-2 -50,-5 c0,-4 7,-20 16,-36 c8,-17 14,-40 12,-52 l-3,-22 l-22,24 c-30,32 -47,71 -78,176 c-22,73 -26,103 -21,157 c5,70 22,119 43,125 c7,3 26,-23 43,-57 c27,-54 38,-64 83,-86 c78,-36 146,-29 108,11 c-5,6 -19,38 -31,73 c-22,59 -40,82 -100,124 l-25,17 l28,26 c38,34 49,32 72,-17 c15,-33 31,-49 69,-67 c46,-23 156,-42 156,-27 c0,23 -55,107 -84,130 c-20,15 -34,31 -31,35 c2,5 32,11 66,15 c91,9 145,44 175,112 c13,30 24,64 24,75 c0,19 -1,19 -42,-5 c-24,-13 -61,-28 -83,-31 c-30,-6 -52,-20 -85,-55 c-49,-51 -100,-71 -100,-38 c0,10 6,21 14,24 c8,3 19,19 25,36 c12,33 15,146 5,172 c-10,26 -34,19 -34,-9 c0,-16 -16,-43 -43,-73 c-64,-69 -77,-92 -77,-134 c0,-32 -5,-41 -37,-63 c-21,-14 -47,-32 -59,-40 c-21,-15 -21,-14 -27,49 c-9,96 -28,133 -79,156 c-76,34 -78,32 -71,-67 c5,-89 9,-98 68,-179 c14,-19 13,-25 -18,-77 c-24,-40 -36,-74 -41,-117 c-4,-36 -12,-60 -19,-60 c-7,0 -38,38 -70,83 c-32,45 -71,99 -87,121 l-30,39 l30,34 c24,27 30,43 30,82 c0,50 -23,121 -39,121 c-22,0 -70,-54 -91,-102 l-22,-52 l-24,27 c-29,34 -30,49 -3,107 c12,25 21,64 21,88 c0,46 -38,152 -54,152 c-16,0 -59,-49 -74,-87 c-13,-30 -14,-44 -3,-80 c6,-24 9,-46 6,-50 c-4,-3 -47,17 -96,46 c-101,58 -138,63 -211,30 c-49,-22 -90,-56 -90,-74 c0,-16 84,-39 132,-38 c21,1 40,-2 42,-6 c3,-5 -12,-22 -34,-40 c-22,-18 -40,-38 -40,-45 c0,-8 26,-21 62,-31 c51,-14 83,-16 165,-11 l102,7 l38,-35 c39,-37 32,-47 -15,-22 c-50,26 -98,29 -157,11 l-56,-18 l26,-27 c15,-16 59,-42 99,-58 c65,-27 76,-29 117,-20 c67,15 95,4 161,-63 c63,-64 71,-90 39,-130 c-33,-43 -45,-74 -42,-112 c1,-22 -2,-37 -7,-35 c-5,1 -65,31 -133,66 c-149,75 -221,89 -269,53 c-34,-24 -52,-27 -44,-6 c17,44 -45,28 -114,-30 c-16,-14 -33,-25 -36,-25 c-13,0 -5,27 21,65 c38,55 36,142 -5,200 c-35,50 -72,60 -72,18 c0,-15 -9,-41 -20,-58 c-25,-38 -25,-60 2,-124 c17,-42 19,-60 12,-89 c-13,-54 -38,-48 -71,18 c-22,44 -39,62 -83,88 l-55,33 l-3,-26 c-4,-33 14,-118 34,-161 c11,-23 31,-40 70,-58 l54,-26 l0,-70 c0,-38 -4,-70 -9,-70 c-4,0 -26,12 -47,26 c-49,34 -90,46 -131,38 c-38,-7 -113,-69 -113,-93 c0,-26 88,-46 200,-46 l94,0 l38,-70 c21,-38 46,-77 55,-87 c26,-29 8,-33 -59,-13 c-35,10 -98,28 -140,39 c-69,19 -83,27 -125,73 c-51,55 -132,99 -193,105 c-30,2 -35,0 -32,-17 c6,-33 76,-109 110,-120 c21,-6 32,-16 32,-27 c0,-15 -9,-18 -55,-18 c-30,0 -74,-5 -99,-12 c-40,-11 -47,-9 -89,15 c-67,40 -139,38 -198,-5 c-24,-17 -47,-36 -51,-42 c-12,-18 4,-28 36,-22 c21,4 44,0 71,-14 c22,-11 50,-20 63,-20 c29,0 32,7 -71,-121 c-86,-105 -107,-146 -107,-204 c0,-44 1,-45 33,-45 c18,0 53,10 77,23 l45,22 l6,90 c6,93 28,155 56,155 c17,0 16,-10 -2,-53 c-15,-37 -11,-63 21,-130 c11,-23 24,-37 33,-35 c26,5 78,126 86,198 c4,36 11,73 17,83 c9,18 101,67 126,67 c24,0 11,-29 -26,-56 c-52,-38 -71,-66 -78,-118 c-6,-37 -4,-47 10,-52 c24,-9 86,43 116,99 c36,65 68,96 112,107 c43,12 63,8 227,-47 c97,-33 109,-34 165,-25 l60,9 l41,-38 c22,-20 53,-41 68,-44 c15,-4 26,-12 24,-18 c-2,-6 -55,-30 -118,-52 c-96,-35 -118,-47 -136,-75 c-28,-40 -29,-81 -5,-103 c38,-35 94,-9 155,72 c57,75 102,111 139,111 l31,0 l-50,-48 c-35,-33 -57,-66 -72,-105 c-11,-32 -21,-62 -21,-67 c0,-18 24,-11 80,23 c41,25 67,51 105,107 c53,78 86,104 148,115 c33,7 37,5 37,-14 c0,-16 -6,-21 -28,-21 c-42,0 -122,-90 -122,-138 c0,-25 -6,-25 92,-6 c19,4 57,30 99,70 c67,63 69,64 123,64 c65,0 134,-24 201,-70 c60,-41 85,-66 85,-84 c0,-23 -116,9 -177,49 c-29,19 -64,35 -78,35 c-52,0 -95,-74 -95,-162 c0,-31 4,-38 20,-38 c11,0 20,5 20,10 c0,6 21,24 47,40 c46,30 83,39 83,21 c0,-17 -83,-77 -142,-104 c-82,-37 -93,-62 -74,-173 c8,-47 18,-89 21,-92 c4,-4 35,22 68,58 c51,53 64,75 74,119 c16,67 49,121 74,121 c26,0 24,-19 -7,-51 c-33,-35 -35,-85 -5,-150 c35,-77 44,-78 83,-12 c44,77 47,90 36,157 c-8,42 -7,60 2,71 c19,23 78,18 126,-10 c71,-41 115,-122 144,-260 c5,-27 20,-71 31,-97 c20,-42 31,-51 109,-93 c85,-45 118,-73 254,-219 c42,-45 46,-66 12,-66 c-18,0 -29,10 -43,38 c-42,81 -140,108 -202,56 c-17,-14 -31,-31 -31,-38 c0,-6 23,-17 52,-24 c29,-6 59,-19 67,-27 c14,-13 6,-15 -66,-15 l-81,0 l-20,48 c-25,58 -55,87 -111,107 c-58,20 -75,19 -121,-7 c-48,-27 -51,-45 -10,-59 c26,-10 79,-74 68,-84 c-2,-3 -31,1 -64,7 c-57,10 -65,9 -117,-15 c-61,-28 -140,-95 -163,-138 c-20,-39 -18,-42 19,-23 c23,13 59,18 127,18 c75,1 101,5 120,19 c14,10 41,29 60,43 c22,16 45,24 64,22 c45,-5 41,-21 -9,-46 c-53,-25 -84,-80 -85,-146 c0,-38 0,-38 23,-22 c12,9 43,27 69,41 c25,13 70,51 99,84 c59,68 83,81 142,81 l42,-1 l-53,-47 c-50,-45 -53,-52 -59,-105 c-7,-72 5,-78 81,-44 c44,20 62,36 85,74 c52,83 59,91 111,108 c42,14 56,15 80,5 c45,-19 102,-87 155,-186 c27,-49 64,-114 83,-144 c19,-30 50,-86 69,-125 l34,-70 l-2,-170 c-3,-208 3,-249 52,-347 c22,-43 39,-80 39,-83 c0,-9 -124,-5 -182,5 c-31,6 -96,26 -145,45 c-48,19 -96,35 -106,35 c-27,0 -79,30 -74,43 c2,6 23,15 46,19 c50,9 105,47 126,88 c26,50 22,53 -57,47 c-61,-4 -123,-23 -179,-54 c-9,-5 -30,47 -24,58 c4,5 31,9 62,9 c47,0 61,5 94,31 c22,17 46,44 54,60 c19,35 19,78 1,85 c-18,7 -112,-36 -167,-75 l-44,-33 l-3,37 c-3,37 -1,42 66,141 c31,45 33,54 30,111 c-2,34 -7,66 -12,70 c-13,13 -79,-32 -110,-75 c-22,-32 -29,-53 -33,-108 c-8,-129 -16,-137 -67,-78 c-31,35 -120,78 -190,91 c-26,5 -28,4 -21,-18 c13,-45 66,-128 96,-153 c21,-18 42,-26 69,-26 c46,0 86,-31 96,-74 l7,-29 l-52,7 c-68,9 -125,-8 -183,-54 l-47,-37 l20,-19 c17,-16 37,-19 108,-18 c53,0 103,6 129,16 l43,16 l66,-68 c36,-37 66,-71 67,-75 c1,-4 -74,-8 -166,-7 c-127,1 -173,4 -196,16 c-56,29 -222,231 -222,270 c0,6 -25,60 -55,119 c-54,106 -67,150 -51,175 c11,18 19,15 75,-19 c43,-27 57,-31 96,-27 c28,4 59,16 81,33 c33,25 35,29 20,40 c-26,19 -154,58 -170,52 c-18,-7 -43,20 -30,32 c5,5 31,14 58,20 c90,22 160,70 168,116 c3,18 -4,21 -82,26 c-46,4 -90,5 -96,2 c-7,-2 -35,-31 -64,-64 c-28,-32 -55,-59 -59,-59 c-5,0 -11,31 -14,69 c-6,74 -22,114 -56,145 c-20,18 -21,18 -31,-10 c-6,-16 -14,-56 -17,-89 c-5,-55 -3,-65 26,-111 c17,-28 31,-63 31,-77 c0,-34 -20,-77 -36,-77 c-7,0 -33,37 -58,83 c-53,97 -71,118 -151,182 c-130,106 -245,231 -245,269 c0,19 2,19 50,5 c40,-12 90,-6 90,11 c0,22 -83,99 -140,129 c-60,32 -69,46 -50,82 c17,30 37,23 62,-23 c13,-24 37,-49 53,-57 c38,-18 115,-25 135,-12 c12,8 10,15 -15,41 c-16,17 -50,45 -77,63 c-26,17 -50,38 -52,45 c-10,22 48,13 89,-15 c35,-24 50,-27 120,-28 l80,0 l3,35 c3,52 -17,82 -68,102 c-56,21 -100,22 -147,3 c-44,-19 -82,-19 -89,-2 c-3,8 11,37 31,66 c37,56 42,79 24,130 c-15,43 -39,40 -88,-15 c-51,-55 -80,-116 -81,-168 c0,-28 -10,-54 -36,-92 c-19,-30 -37,-54 -39,-54 c-2,0 -16,24 -33,53 c-23,41 -43,60 -93,90 c-35,20 -69,37 -76,37 c-17,0 -16,-25 2,-88 c19,-64 52,-103 120,-144 c52,-31 65,-49 65,-95 c0,-12 9,-42 20,-67 c10,-25 15,-46 11,-46 c-29,0 -162,54 -206,84 c-64,42 -95,81 -151,188 l-41,81 l44,43 l45,43 l-4,70 c-3,58 -8,75 -27,94 l-22,22 l-35,-40 c-19,-21 -37,-49 -39,-62 c-3,-13 -7,-34 -10,-48 c-3,-14 -10,-25 -15,-25 c-6,0 -36,25 -67,56 c-55,56 -56,57 -43,88 c7,17 15,56 17,87 c4,52 2,58 -36,107 c-51,64 -87,90 -103,74 c-7,-7 -12,-36 -12,-64 c-1,-42 5,-61 26,-93 c16,-22 28,-47 28,-57 c0,-15 -8,-13 -62,12 c-35,17 -75,30 -89,30 c-14,0 -36,11 -49,25 c-12,13 -38,29 -57,36 c-28,9 -39,8 -66,-8 c-30,-18 -107,-108 -107,-126 c0,-10 124,2 158,14 c38,14 101,10 135,-8 l32,-18 l-55,-5 c-63,-6 -83,-16 -123,-58 l-28,-30 l32,-11 c47,-16 116,-13 184,8 c74,23 99,16 156,-47 c45,-48 41,-62 -13,-43 c-65,23 -130,9 -172,-38 c-15,-17 -16,-23 -6,-36 c10,-12 37,-15 127,-15 c143,0 171,-10 216,-82 c19,-29 38,-64 42,-77 l7,-24 l-71,6 c-85,7 -141,31 -159,69 c-7,14 -28,40 -47,57 c-34,29 -40,31 -121,31 c-102,0 -104,-7 -18,-67 c32,-23 59,-47 59,-54 c0,-18 -155,-25 -186,-8 c-37,20 -98,28 -138,18 c-92,-23 -111,-31 -111,-44 c0,-20 44,-41 118,-55 c35,-7 61,-17 59,-23 c-1,-5 -34,-28 -72,-49 c-39,-22 -80,-49 -93,-61 c-24,-23 -42,-74 -42,-125 c0,-33 24,-92 38,-92 c4,0 31,24 60,53 c41,41 56,66 67,106 c7,29 21,62 31,72 c19,21 49,26 40,7 c-29,-71 -32,-158 -5,-158 c24,0 67,60 98,135 c36,88 62,120 104,130 c38,10 37,-19 -2,-39 c-44,-23 -93,-136 -58,-136 c6,0 39,13 72,28 c47,23 68,40 95,81 l35,52 l80,-6 c95,-8 175,-30 219,-61 c77,-56 119,-76 193,-90 c43,-8 95,-19 116,-25 c46,-12 51,-39 7,-39 c-16,0 -53,-9 -82,-20 c-29,-11 -60,-20 -68,-20 c-8,0 -28,18 -43,40 c-63,88 -183,107 -253,39 c-36,-34 -89,-108 -82,-114 c2,-2 23,5 47,16 c52,23 118,25 167,4 c42,-17 39,-25 -18,-55 c-24,-12 -67,-40 -97,-63 c-52,-38 -56,-40 -85,-27 c-74,32 -204,-4 -260,-73 c-19,-24 -40,-55 -46,-71 l-11,-29 l63,5 c40,4 88,17 132,37 c38,17 73,28 78,23 c12,-12 -46,-81 -119,-141 c-35,-28 -66,-63 -69,-76 c-5,-20 22,-221 32,-233 c1,-2 29,24 62,57 l60,60 l-5,93 c-6,91 -5,94 22,126 c30,36 63,45 45,13 c-17,-33 -12,-119 11,-172 c12,-27 27,-49 33,-49 c6,0 22,28 36,63 c19,49 25,82 26,158 c2,85 5,101 28,135 c31,48 116,107 145,102 c22,-3 22,-3 -3,-37 c-17,-22 -26,-48 -26,-70 c0,-54 24,-136 41,-138 c8,-2 31,26 55,65 c46,74 64,121 64,163 c0,57 110,112 172,86 c18,-8 51,-17 72,-21 c108,-20 217,-110 276,-226 c30,-58 51,-84 92,-116 c62,-47 136,-140 140,-175 c3,-24 2,-24 -78,-21 c-92,2 -159,-16 -238,-67 c-65,-40 -94,-40 -147,5 c-52,43 -88,62 -159,84 c-52,17 -55,19 -66,64 c-7,26 -18,53 -24,61 c-14,17 -73,35 -115,35 c-38,0 -119,-47 -165,-95 c-34,-36 -35,-37 -15,-51 c20,-15 67,-15 168,2 c29,5 37,3 37,-9 c0,-9 -15,-20 -33,-26 c-19,-7 -55,-25 -81,-41 c-41,-27 -53,-29 -99,-24 c-74,8 -131,-23 -173,-94 c-33,-54 -50,-125 -38,-156 c6,-15 10,-14 38,13 c17,16 49,37 71,46 c22,9 59,35 82,58 c24,22 45,38 49,35 c3,-3 -7,-42 -22,-87 l-27,-80 l-51,-11 c-86,-18 -218,-61 -270,-87 c-45,-23 -56,-24 -125,-18 c-42,4 -176,9 -299,10 c-259,3 -258,3 -286,91 c-10,33 -25,66 -32,75 c-22,24 -172,65 -193,52 c-27,-17 -23,-36 24,-98 c55,-73 58,-101 13,-120 c-40,-16 -51,-9 -67,44 c-8,28 -29,55 -69,90 c-61,55 -73,59 -92,36 c-8,-9 -21,-13 -37,-9 c-17,5 -31,0 -48,-16 l-24,-23 l49,-44 c41,-37 49,-49 44,-69 c-4,-14 -1,-31 6,-39 c7,-9 10,-18 7,-22 c-4,-3 -46,-7 -95,-8 c-72,-2 -97,-7 -140,-29 c-29,-14 -52,-30 -52,-35 c0,-5 -16,-28 -35,-51 c-33,-39 -53,-98 -41,-118 c3,-6 44,2 98,19 c75,23 98,35 118,61 c71,90 110,112 110,61 c-1,-16 -7,-39 -15,-53 c-16,-28 -20,-126 -6,-134 c5,-3 44,23 88,57 c58,48 85,78 106,119 c26,52 57,78 92,78 c23,0 18,-31 -12,-75 c-24,-34 -28,-52 -31,-122 c-2,-46 -1,-83 2,-83 c7,0 197,193 241,244 l30,35 l95,2 c52,0 99,0 103,0 c35,-4 -140,-165 -190,-175 c-15,-2 -47,-8 -70,-11 c-58,-9 -93,-38 -244,-204 c-114,-125 -249,-305 -249,-332 c0,-5 -19,-9 -43,-9 c-76,0 -140,-26 -185,-74 c-39,-42 -45,-57 -57,-141 c-9,-65 3,-71 70,-38 c43,22 66,43 94,83 c40,60 68,79 57,39 c-3,-13 -17,-64 -29,-114 l-24,-90 l-76,-26 c-88,-30 -101,-39 -139,-98 c-20,-33 -28,-57 -28,-92 l0,-47 l57,15 c79,20 84,24 118,82 c17,28 37,51 47,51 c15,0 15,-5 2,-57 c-7,-32 -13,-75 -14,-96 c0,-21 -12,-61 -26,-89 c-25,-49 -26,-58 -20,-138 c12,-145 58,-211 95,-135 c7,17 24,50 37,75 c12,25 28,66 34,90 c10,42 9,50 -19,110 c-25,52 -31,78 -31,130 c0,113 23,144 46,63 c25,-87 97,-183 137,-183 c18,0 19,7 15,95 l-4,94 l-62,65 l-62,64 l0,71 c0,58 3,73 17,78 c11,4 21,0 27,-12 c23,-40 93,-109 123,-121 c37,-16 91,-18 112,-5 c12,8 8,17 -22,50 c-20,23 -37,44 -37,49 c0,4 16,20 35,35 c19,15 44,46 55,67 c32,63 44,52 57,-50 c19,-146 95,-281 174,-309 l29,-10 l-1,82 c0,104 -14,146 -58,172 c-18,11 -49,34 -68,51 c-30,25 -36,38 -41,82 c-6,64 13,71 43,14 c26,-49 109,-92 177,-92 c32,0 48,4 48,13 c0,21 -105,161 -130,174 c-14,7 -44,17 -67,23 c-33,8 -43,16 -52,42 c-14,39 -14,89 -1,124 l11,27 l24,-34 c63,-90 90,-110 167,-124 c35,-7 38,-5 38,15 c0,30 -48,116 -74,133 c-12,8 -37,19 -58,26 c-20,7 -48,23 -62,36 c-22,20 -26,33 -26,78 c0,93 55,142 177,157 l78,10 l80,83 c80,84 163,137 212,137 c29,0 29,-8 -2,-61 c-14,-24 -25,-60 -25,-79 c0,-37 33,-120 48,-120 c4,0 16,26 26,57 c19,58 62,113 90,113 c21,0 20,-19 -3,-77 c-10,-26 -22,-66 -26,-88 c-9,-49 -17,-55 -81,-55 c-86,0 -125,-50 -140,-179 c-8,-71 -1,-75 65,-41 c40,20 63,45 93,99 c35,63 51,21 23,-58 c-8,-23 -28,-62 -46,-87 c-38,-55 -46,-108 -29,-187 l11,-57 l66,63 c81,77 97,109 77,156 c-16,38 -19,147 -4,156 c5,3 24,-25 42,-62 c24,-50 47,-79 86,-110 c29,-24 58,-43 64,-43 c14,0 5,125 -12,161 c-7,15 -34,43 -61,64 c-76,57 -88,85 -78,173 c8,70 20,102 40,102 c5,0 9,-19 9,-43 c0,-54 18,-80 83,-117 c71,-41 87,-40 87,8 c-1,53 -30,110 -83,160 c-64,60 -72,101 -28,146 c63,65 269,121 279,75 c1,-8 -9,-21 -23,-29 c-15,-8 -41,-32 -58,-54 c-27,-34 -32,-50 -35,-108 l-4,-68 l28,10 c52,18 85,53 104,110 c10,30 24,55 32,55 c20,0 47,-84 47,-150 c1,-69 27,-122 63,-129 c13,-3 52,-7 88,-10 c36,-3 77,-8 92,-12 c27,-6 28,-4 28,28 c0,54 -36,98 -112,138 c-80,42 -106,64 -124,107 c-16,36 -18,73 -6,73 c5,0 29,-15 53,-34 c24,-18 61,-37 82,-40 c35,-7 37,-5 37,19 c0,14 -7,39 -15,56 c-9,16 -13,34 -10,39 c3,6 50,10 105,10 c96,0 100,1 187,45 c71,35 105,61 168,124 c64,65 91,85 144,107 c76,30 116,28 196,-11 c66,-32 111,-80 183,-195 l60,-95 l105,-3 c126,-3 127,-7 31,-82 l-65,-51 l-33,20 c-50,31 -92,27 -131,-12 c-47,-47 -54,-94 -23,-155 c29,-56 48,-63 66,-23 c21,47 52,81 74,81 c15,0 18,-4 13,-17 c-4,-10 -15,-38 -23,-63 c-25,-73 -31,-85 -63,-105 c-38,-25 -55,-56 -63,-120 c-13,-91 -13,-91 -52,-54 c-32,31 -41,34 -107,37 c-70,4 -127,-8 -127,-27 c0,-5 23,-17 50,-27 c28,-10 62,-31 77,-46 l27,-28 l-100,0 l-99,1 l-32,44 c-35,47 -40,49 -166,60 c-77,6 -75,10 -40,-75 c23,-57 41,-70 93,-70 c69,0 83,-21 41,-64 c-18,-18 -54,-44 -81,-56 c-54,-25 -85,-72 -97,-144 l-6,-37 l73,35 c84,40 100,54 126,101 c25,47 46,44 72,-10 c18,-36 31,-50 68,-65 c25,-11 48,-20 51,-20 c12,0 -12,71 -43,123 c-19,32 -34,62 -34,67 c0,25 111,43 125,21 c3,-6 -4,-25 -15,-43 c-31,-51 -26,-86 20,-142 c22,-26 40,-50 40,-52 c0,-3 -53,-2 -119,2 c-130,8 -214,-6 -320,-52 c-82,-36 -121,-33 -165,16 c-43,48 -45,68 -10,101 c54,51 71,130 37,179 c-24,35 -33,40 -80,40 c-47,0 -52,-9 -28,-50 c19,-33 20,-110 2,-110 c-8,0 -22,18 -32,39 c-10,22 -28,50 -41,62 c-20,19 -29,21 -92,14 l-70,-7 l-7,54 c-4,29 -13,60 -19,69 c-21,30 -81,76 -107,82 l-27,7 l-4,-78 c-6,-86 6,-118 47,-128 c53,-13 7,-74 -55,-74 c-55,0 -120,-73 -120,-134 c0,-35 30,-106 44,-106 c22,0 60,49 96,123 c27,56 40,73 59,75 c20,3 23,1 16,-15 c-4,-10 -12,-30 -18,-44 c-14,-34 -1,-93 27,-126 l24,-28 l23,47 c12,26 26,45 29,43 c4,-3 10,-22 13,-43 c4,-20 12,-46 20,-56 c12,-16 17,-13 75,38 c35,31 67,56 72,56 c9,0 75,-120 68,-124 c-2,-2 -19,-15 -39,-29 c-46,-35 -91,-35 -140,-2 c-53,37 -100,42 -142,16 c-43,-26 -53,-26 -102,1 c-22,12 -64,25 -94,29 c-47,7 -61,4 -104,-17 l-49,-25 l23,-25 c41,-44 101,-66 158,-58 c65,8 66,-2 7,-77 l-44,-56 l-76,0 c-87,0 -111,-12 -160,-81 c-27,-38 -28,-44 -16,-67 c22,-40 46,-41 110,-1 c32,20 63,36 69,36 c19,0 12,-33 -24,-104 c-39,-78 -41,-95 -21,-154 c29,-82 86,-144 86,-93 c0,10 11,43 25,73 c30,65 31,100 4,144 c-21,34 -23,85 -3,91 c6,2 17,-9 23,-25 c7,-16 29,-46 50,-66 l38,-37 l6,28 c3,15 9,56 12,89 c7,56 5,66 -20,107 c-29,51 -28,68 10,110 c33,34 46,27 34,-18 c-7,-26 -6,-42 5,-63 c15,-28 82,-82 103,-82 c30,0 32,100 3,140 c-36,50 -53,100 -39,116 c21,26 74,17 119,-21 c23,-19 53,-38 66,-41 c28,-7 83,13 150,55 c49,32 84,40 84,20 c0,-31 -45,-77 -132,-135 c-73,-48 -106,-76 -130,-114 c-18,-28 -42,-52 -53,-54 c-11,-2 -47,-9 -79,-15 c-33,-6 -64,-15 -69,-20 c-10,-10 -38,-143 -31,-150 c2,-2 19,10 39,28 c57,50 105,38 105,-26 c0,-29 -5,-35 -51,-58 c-43,-22 -54,-34 -79,-87 l-29,-60 l20,-51 c11,-28 23,-55 26,-59 c6,-11 33,10 33,26 c0,6 14,40 31,76 c28,59 32,63 42,45 c8,-13 11,-59 9,-129 l-2,-109 l48,-51 c27,-28 54,-62 61,-74 c20,-37 36,-26 49,36 c19,92 16,106 -34,168 c-53,64 -74,101 -74,127 c0,32 25,17 52,-33 c19,-34 40,-56 67,-70 c53,-26 61,-25 61,8 c0,63 -21,102 -86,164 c-61,59 -65,65 -62,102 c4,50 23,57 37,13 c14,-42 64,-91 113,-111 c55,-23 68,-21 68,13 c0,40 -37,89 -97,130 c-129,89 -107,171 81,294 c68,45 90,67 124,121 c59,93 152,152 138,89 c-4,-16 -8,-50 -10,-77 c-4,-46 -7,-52 -52,-84 c-64,-46 -70,-55 -94,-131 c-34,-106 -25,-114 51,-50 c27,22 54,55 61,75 c20,55 40,40 55,-41 c12,-64 12,-71 -4,-83 c-114,-81 -108,-74 -107,-133 c1,-54 37,-149 60,-156 c6,-2 11,13 12,38 c3,60 22,118 46,135 c30,20 36,2 34,-94 c-2,-96 8,-115 87,-169 c53,-37 68,-38 73,-3 c5,31 -41,148 -73,184 c-26,30 -51,103 -40,115 c4,3 15,-5 24,-19 c44,-67 129,-135 147,-118 c8,8 -24,116 -42,143 c-8,11 -38,34 -67,51 c-44,26 -54,37 -69,80 c-19,56 -22,94 -8,94 c5,0 26,-18 47,-41 c21,-23 50,-47 66,-55 c28,-15 93,-22 103,-11 c12,11 -106,131 -153,157 c-107,57 -88,197 33,255 c34,16 40,16 108,0 c111,-27 214,-72 304,-134 c176,-119 202,-125 303,-72 c38,20 82,34 118,38 c56,5 60,4 76,-21 c19,-29 61,-35 110,-16 c34,13 145,-8 145,-27 c0,-11 -20,-19 -101,-38 c-15,-4 -39,-20 -55,-36 c-33,-35 -74,-39 -74,-9 c0,35 -44,70 -88,70 c-66,0 -142,-73 -142,-135 c0,-9 11,-9 43,3 c47,17 117,10 117,-12 c0,-12 -64,-64 -124,-100 l-32,-19 l-57,26 c-70,34 -133,36 -172,5 c-29,-23 -85,-104 -85,-124 c0,-7 24,-14 63,-17 c51,-4 71,-1 116,19 c63,28 61,28 61,9 c0,-8 -30,-43 -66,-77 c-73,-70 -94,-102 -94,-148 c0,-31 41,-123 60,-135 c5,-3 30,13 55,36 l45,42 l0,101 c0,103 4,116 43,145 c16,13 17,12 7,-13 c-5,-15 -10,-43 -10,-63 c0,-48 30,-143 45,-143 c18,0 64,72 79,122 c10,32 11,59 4,107 c-8,49 -7,70 3,88 c13,25 66,59 76,49 c3,-3 -2,-26 -11,-52 c-19,-56 -20,-91 -5,-167 c17,-83 30,-88 70,-25 c34,52 34,54 34,170 c0,108 2,118 23,141 c46,49 104,64 267,72 c120,5 167,3 235,-10 c47,-9 118,-21 159,-26 c151,-19 256,-58 431,-162 c188,-112 390,-263 390,-292 c0,-7 -18,-15 -42,-19 c-24,-4 -70,-22 -103,-40 c-87,-49 -166,-66 -305,-66 c-141,0 -153,7 -125,69 c29,65 23,104 -26,165 c-29,36 -48,51 -55,45 c-6,-5 -21,-36 -33,-68 c-16,-43 -19,-70 -15,-105 c10,-66 -15,-61 -67,15 c-28,41 -52,66 -76,76 c-43,17 -114,22 -120,7 c-2,-5 23,-46 56,-91 c50,-69 66,-83 108,-98 c26,-10 56,-25 66,-33 c16,-14 14,-16 -20,-32 c-21,-9 -43,-23 -49,-31 c-12,-15 -25,-119 -15,-119 c4,0 22,11 42,24 c19,13 51,31 70,39 c19,8 50,29 69,46 c27,25 41,31 60,26 c44,-11 54,-28 37,-61 c-8,-16 -26,-41 -41,-56 c-22,-25 -32,-28 -92,-28 c-49,0 -76,-5 -104,-21 c-35,-20 -41,-30 -64,-103 c-30,-92 -33,-154 -11,-196 c14,-27 14,-33 0,-60 c-8,-16 -15,-39 -15,-51 c0,-20 4,-21 55,-17 c42,4 66,13 101,38 c26,18 49,29 54,24 c12,-12 -6,-98 -26,-128 c-35,-54 -15,-137 54,-225 l19,-24 l32,67 c48,100 49,124 11,207 c-31,68 -34,104 -8,93 c7,-3 22,-24 33,-46 c24,-51 61,-79 106,-81 c32,-2 34,0 32,31 c-2,46 -44,106 -98,138 c-70,40 -87,86 -63,165 c13,46 34,51 43,9 c4,-16 18,-38 31,-49 c24,-19 122,-46 132,-37 c2,3 1,21 -2,41 c-5,26 -26,57 -67,101 c-52,56 -59,68 -59,105 c0,37 6,48 48,89 c49,49 105,70 189,70 c25,0 53,12 95,40 c84,56 93,54 58,-15 c-11,-22 -20,-49 -20,-61 c0,-25 -17,-34 -63,-34 c-74,0 -141,-77 -141,-162 c0,-26 3,-50 7,-54 c8,-9 62,30 126,90 l53,51 l-6,-55 c-8,-64 -14,-71 -64,-85 c-64,-18 -124,-133 -106,-202 c4,-13 11,-23 16,-23 c6,0 39,29 73,65 c58,59 63,63 69,42 c10,-39 6,-87 -10,-118 c-9,-18 -13,-41 -9,-58 c9,-44 120,-141 160,-141 c20,0 23,6 27,47 c4,56 -18,110 -73,175 c-21,26 -39,57 -39,70 c1,21 3,20 33,-14 c18,-20 52,-46 77,-57 c45,-20 95,-28 88,-13 c-43,98 -73,143 -123,186 c-57,49 -57,49 -53,98 c3,27 8,51 12,55 c13,13 38,-25 43,-68 c6,-48 24,-74 65,-95 c36,-18 72,-18 88,2 c21,25 -12,115 -55,151 c-19,15 -50,41 -69,56 c-19,15 -40,43 -46,63 c-16,47 11,94 63,111 c49,16 65,9 162,-72 c132,-109 181,-160 236,-242 c29,-43 87,-114 129,-158 c48,-50 102,-121 143,-190 c74,-122 190,-395 200,-470 c12,-83 47,-145 120,-208 c49,-44 75,-77 106,-136 l40,-77 l-19,-31 c-10,-18 -20,-53 -22,-80 c-4,-67 -26,-67 -61,0 c-15,29 -40,60 -55,69 c-26,15 -102,35 -102,26 c0,-2 11,-33 25,-68 c27,-70 51,-101 106,-136 c29,-18 38,-31 42,-61 c2,-21 8,-48 12,-60 c15,-47 -24,-22 -93,60 c-81,96 -88,109 -103,176 c-8,38 -19,57 -45,78 c-18,15 -50,41 -69,56 c-41,34 -44,60 -14,120 c12,23 22,54 21,69 c-1,33 -26,85 -60,120 c-20,22 -28,25 -39,16 c-43,-35 -55,-113 -26,-173 c9,-19 14,-37 11,-41 c-9,-8 -147,75 -158,96 c-5,9 -8,40 -8,68 c2,58 -17,93 -65,122 c-52,32 -142,23 -102,-10 c15,-13 75,-118 75,-132 c0,-19 -31,-5 -96,42 c-57,42 -76,50 -112,50 c-48,0 -100,-19 -121,-44 c-13,-15 -10,-20 20,-47 c54,-47 74,-52 159,-38 c59,9 81,9 98,0 c33,-18 27,-31 -14,-31 c-43,0 -95,-30 -124,-70 l-21,-29 l38,-11 c21,-5 62,-13 90,-16 c50,-6 54,-5 93,30 c22,20 47,36 55,36 c26,0 115,-49 115,-64 c0,-8 -22,-18 -59,-26 c-41,-8 -67,-21 -84,-39 c-24,-26 -54,-98 -44,-107 c3,-3 24,0 47,6 c40,11 44,10 71,-16 c46,-44 39,-52 -43,-47 c-84,6 -108,18 -143,73 c-30,48 -66,68 -139,76 c-67,8 -68,5 -27,-83 c24,-50 35,-64 58,-68 c42,-9 73,-23 73,-33 c0,-5 -21,-15 -46,-22 c-37,-11 -56,-11 -94,-1 c-66,17 -82,6 -126,-81 c-31,-61 -34,-73 -21,-85 c25,-25 118,9 183,68 c30,27 59,49 64,49 c15,0 12,-23 -6,-48 c-21,-31 -16,-126 8,-130 c29,-5 99,68 130,136 c33,73 56,88 121,78 c53,-8 70,-33 29,-42 c-68,-17 -142,-75 -142,-113 c0,-15 115,-14 143,0 c12,7 43,31 69,55 c26,24 55,44 65,44 c47,0 233,-111 295,-176 c48,-51 111,-155 99,-167 c-5,-5 -30,2 -60,17 c-47,24 -51,29 -51,62 c0,46 -50,99 -103,109 c-71,14 -79,-26 -21,-102 c35,-46 31,-53 -30,-53 c-53,0 -55,1 -90,49 c-26,37 -45,53 -72,60 c-38,11 -121,4 -130,-10 c-6,-11 63,-87 87,-94 c10,-4 19,-12 19,-20 c0,-17 -32,-25 -100,-25 c-91,0 -133,-36 -146,-123 c-6,-42 -4,-47 13,-47 c47,0 112,33 158,80 c63,64 83,65 50,4 c-28,-53 -32,-92 -10,-100 c8,-3 38,7 67,23 c40,21 58,38 73,71 c21,43 39,62 63,62 c10,0 9,-5 -2,-22 c-15,-21 -24,-138 -11,-138 c20,0 68,37 118,89 c41,43 65,61 83,61 c33,0 97,-33 130,-67 c29,-31 74,-119 74,-146 c0,-10 20,-37 45,-59 c50,-45 54,-64 26,-99 l-19,-24 l-29,27 c-59,56 -105,53 -171,-12 c-27,-27 -30,-35 -20,-48 c10,-11 29,-13 90,-9 c92,6 95,2 42,-66 l-36,-46 l-45,31 c-25,17 -56,31 -69,31 c-50,0 -120,-79 -99,-112 c8,-14 76,-14 111,-1 c17,7 31,7 37,1 c13,-13 -41,-91 -78,-111 c-16,-9 -40,-35 -53,-58 l-23,-42 l25,-55 c14,-30 29,-55 33,-55 c5,0 27,18 48,41 c39,39 40,41 40,115 c0,55 4,77 15,84 c30,19 38,12 30,-27 c-6,-26 -5,-45 6,-65 c17,-33 91,-75 106,-60 c16,16 -1,86 -33,137 c-35,55 -37,100 -6,145 c38,57 50,52 42,-19 c-6,-55 -4,-66 16,-96 c13,-19 27,-35 31,-35 c4,0 19,23 34,51 l25,51 l-21,54 c-23,56 -22,89 6,132 c21,32 80,30 154,-8 c61,-31 92,-64 129,-137 c17,-33 21,-61 21,-129 c0,-69 7,-108 32,-193 c32,-103 32,-111 31,-276 c-1,-95 -6,-183 -13,-199 c-6,-16 -32,-56 -59,-90 c-61,-78 -71,-97 -71,-140 c0,-64 -51,-39 -76,36 c-12,39 -32,69 -78,114 c-34,33 -70,76 -81,94 c-31,53 -59,64 -138,56 c-37,-4 -67,-11 -67,-16 c0,-5 12,-22 26,-39 c17,-21 35,-31 54,-31 c17,0 30,-7 34,-16 c4,-9 5,-17 4,-18 c-2,-1 -29,-14 -61,-29 c-31,-15 -66,-27 -77,-27 c-11,0 -37,-7 -58,-16 c-31,-12 -41,-23 -51,-53 c-27,-90 -5,-149 44,-117 c53,35 97,81 121,127 c25,50 56,68 91,55 c14,-6 11,-12 -18,-42 c-30,-31 -34,-41 -33,-83 c2,-50 19,-95 34,-89 c21,8 88,113 94,147 c8,52 28,68 59,48 c27,-17 57,-74 57,-106 c0,-12 16,-39 37,-61 c29,-33 36,-49 37,-85 c1,-24 -2,-47 -6,-51 c-4,-4 -36,6 -70,21 c-85,38 -141,42 -197,13 c-25,-13 -46,-28 -48,-34 c-2,-6 19,-23 46,-37 c65,-36 119,-36 160,-1 c27,23 34,24 49,13 c41,-33 41,-44 -3,-65 c-43,-20 -75,-83 -75,-146 c0,-71 10,-76 68,-39 c36,23 55,43 66,71 c9,22 20,40 25,40 c6,0 28,-31 51,-68 c49,-83 51,-123 14,-219 c-25,-65 -27,-81 -35,-328 c-10,-335 -21,-442 -53,-532 c-53,-149 -66,-296 -57,-653 c3,-135 3,-135 -48,-333 c-28,-109 -51,-207 -51,-218 c0,-19 16,-19 691,-19 l691,0 l-6,38 c-3,20 -8,69 -11,107 c-4,39 -13,104 -21,145 c-11,54 -14,132 -12,275 c4,321 2,374 -20,485 c-32,160 -32,161 -37,535 c-10,751 -5,1015 25,1190 c7,40 7,99 0,180 c-5,66 -12,174 -14,240 c-4,97 -12,147 -41,260 c-47,179 -45,223 11,315 c70,112 138,137 226,81 c48,-31 88,-78 88,-106 c0,-22 -17,-53 -47,-84 c-55,-60 -86,-181 -45,-181 c52,1 132,61 132,100 c0,26 21,90 29,90 c14,0 51,-78 51,-108 c0,-22 -13,-46 -46,-84 c-65,-74 -101,-158 -78,-181 c9,-9 56,12 82,36 c12,11 25,38 28,59 c10,62 35,46 59,-39 c4,-15 -6,-50 -29,-102 c-41,-89 -42,-98 -21,-169 c11,-34 22,-53 36,-57 c11,-4 22,-5 23,-3 c29,42 66,112 76,141 c15,49 9,81 -35,169 c-19,40 -35,78 -35,85 c0,26 30,12 66,-31 c20,-24 54,-52 75,-61 c36,-17 40,-17 63,-1 c22,14 24,19 15,44 c-18,47 -56,87 -123,131 c-53,35 -75,58 -117,123 c-28,44 -49,81 -47,84 c3,2 30,-2 61,-8 c68,-14 105,-4 126,34 c14,24 14,28 -4,48 c-10,11 -42,27 -70,35 c-45,13 -59,14 -106,2 l-54,-14 l-72,65 c-78,71 -80,82 -18,102 c45,15 139,-1 206,-36 c46,-23 71,-28 165,-34 c107,-5 133,-13 156,-45 c14,-18 8,-46 -23,-110 c-26,-55 -29,-70 -23,-112 c9,-62 11,-66 35,-49 c41,28 69,78 69,123 c0,48 13,55 47,23 c32,-29 36,-53 19,-110 c-8,-28 -13,-58 -10,-68 c10,-29 49,-102 55,-102 c3,0 15,18 27,39 c18,32 20,44 12,66 c-12,31 -13,75 -2,75 c4,0 20,-10 35,-23 c22,-17 29,-33 34,-75 c7,-62 33,-94 106,-130 c54,-27 67,-23 67,19 c0,62 -56,141 -124,176 c-40,20 -76,53 -76,70 c0,17 31,16 102,-3 c32,-9 61,-14 65,-10 c11,10 -15,54 -41,71 c-26,17 -102,22 -156,10 c-21,-5 -35,0 -55,18 c-42,35 -26,50 45,42 c55,-6 59,-5 94,25 c20,18 36,37 36,44 c0,18 -91,51 -140,50 c-25,0 -65,-6 -90,-13 c-43,-13 -48,-13 -83,10 c-20,13 -35,28 -34,34 c2,5 24,21 50,35 c25,14 58,32 74,41 c15,9 42,20 60,23 c26,6 35,3 50,-15 c63,-78 77,-89 141,-113 c37,-14 71,-26 75,-26 c15,0 6,36 -21,85 c-20,38 -41,58 -85,84 c-53,32 -56,35 -42,51 c20,22 64,31 97,22 c14,-4 54,-38 88,-77 c63,-70 88,-91 96,-82 c3,2 5,25 6,51 c1,51 -16,77 -64,102 c-18,9 -25,20 -22,29 c8,20 87,20 103,1 c7,-8 31,-21 54,-29 c40,-13 45,-12 91,12 c28,14 51,31 53,36 c4,12 -124,95 -147,95 c-8,0 -25,-7 -38,-15 c-28,-20 -102,-42 -125,-37 c-35,7 -16,46 29,60 c53,17 74,53 74,126 c0,33 -4,56 -11,56 c-37,0 -169,-125 -169,-160 c0,-49 -28,-90 -75,-110 c-26,-11 -49,-20 -51,-20 c-13,0 0,51 21,82 c14,20 25,48 25,62 c0,25 25,54 195,230 c33,34 81,76 107,94 c42,29 57,33 141,39 c155,10 207,-11 207,-82 c0,-30 -5,-39 -31,-53 c-64,-35 -86,-60 -107,-127 c-35,-106 -28,-116 49,-67 c33,22 51,43 73,90 c16,34 35,63 43,66 c20,8 33,-35 33,-110 l0,-64 l-46,-28 c-38,-22 -53,-41 -86,-106 c-21,-43 -37,-80 -35,-83 c3,-2 21,-1 41,2 c24,5 46,19 67,44 c79,94 84,96 94,52 c7,-34 -11,-74 -50,-111 c-48,-45 -49,-54 -19,-146 c15,-47 32,-83 38,-81 c14,5 58,69 87,126 c21,42 22,50 11,113 c-7,38 -12,80 -12,93 c0,37 27,31 47,-10 c22,-47 83,-67 150,-49 c41,11 35,34 -26,95 c-46,46 -67,60 -100,65 c-57,9 -71,23 -92,90 c-25,79 -24,84 11,84 c22,0 43,-12 74,-40 c24,-22 47,-40 51,-40 c14,0 -6,75 -32,118 c-28,49 -69,78 -124,87 c-41,7 -89,52 -89,84 c0,32 131,41 235,17 c52,-13 66,-22 110,-69 c55,-61 159,-131 181,-123 c37,14 -7,94 -70,126 c-60,31 -67,45 -25,54 c56,11 103,6 137,-14 c29,-18 32,-24 32,-68 c0,-63 47,-143 79,-135 c17,4 21,13 21,50 c0,24 -9,61 -20,83 c-25,49 -25,50 0,50 c34,0 73,-26 118,-79 c33,-39 54,-54 94,-66 c28,-8 53,-13 56,-10 c2,2 1,25 -2,50 c-7,41 -14,51 -69,95 c-57,46 -66,49 -118,50 c-56,0 -97,18 -86,37 c4,6 26,15 50,21 c68,17 114,81 96,131 c-8,21 -14,23 -50,18 c-54,-7 -113,-49 -148,-107 l-29,-48 l-74,-4 c-40,-3 -77,-1 -83,4 c-5,5 5,23 27,46 c41,41 58,78 58,124 l0,30 l-48,-7 l-49,-6 l-81,79 l-81,79 l32,16 c18,8 58,25 91,36 l58,21 l37,-30 c53,-42 105,-48 170,-20 c28,13 56,31 61,41 c21,38 -97,94 -158,75 c-35,-12 -35,13 1,49 c41,41 76,51 135,37 c34,-7 56,-7 89,3 c48,15 93,41 93,54 c0,11 -123,61 -148,61 c-49,0 -98,-26 -158,-81 c-60,-56 -94,-73 -94,-47 c0,6 12,36 26,66 c30,63 27,86 -17,137 c-46,52 -61,47 -94,-36 l-27,-70 l22,-62 c12,-34 23,-75 23,-92 c2,-27 -4,-33 -52,-57 c-52,-27 -101,-36 -101,-20 c0,4 10,23 22,42 c18,28 22,50 22,107 c0,95 -10,105 -64,65 c-67,-49 -75,-66 -75,-162 l0,-85 l-98,-32 c-54,-17 -113,-43 -132,-57 c-18,-14 -38,-26 -44,-26 c-7,0 -11,27 -11,68 c0,84 14,100 92,111 c56,7 128,50 128,76 c0,12 -43,25 -84,25 c-11,0 -48,-14 -80,-30 c-33,-17 -61,-28 -64,-26 c-2,3 -1,22 4,43 c4,21 7,50 6,64 c-2,14 9,45 22,70 c14,24 33,77 42,118 c20,88 97,210 159,253 c103,70 143,83 255,85 c96,1 113,4 192,37 c128,52 187,47 271,-25 c45,-39 48,-45 44,-78 c-2,-20 -15,-62 -27,-94 c-19,-47 -21,-65 -14,-94 c5,-20 14,-38 21,-40 c6,-2 30,12 52,33 c36,32 41,42 41,80 c0,37 3,44 19,44 c20,0 56,-38 66,-70 c4,-11 -6,-40 -24,-72 c-16,-29 -30,-69 -31,-88 c-5,-92 3,-99 57,-45 c32,32 35,40 30,75 c-6,45 0,48 34,21 c20,-16 24,-31 30,-100 c6,-92 20,-118 88,-165 c53,-39 64,-28 63,62 c0,86 -14,114 -86,176 c-80,68 -71,98 18,61 c39,-16 131,-12 142,7 c8,12 -23,46 -58,64 c-15,8 -56,14 -93,14 c-37,0 -76,5 -88,11 c-26,14 -97,80 -97,91 c0,13 44,8 64,-7 c37,-28 156,-16 156,16 c0,11 -89,64 -148,89 c-47,20 -57,22 -91,10 c-37,-12 -41,-11 -112,32 c-41,25 -74,49 -74,54 c0,17 71,44 117,44 c40,0 53,-6 94,-41 c65,-56 83,-66 132,-77 c47,-11 49,-7 26,41 c-10,21 -34,43 -66,61 c-42,24 -48,30 -36,42 c20,20 102,29 137,15 c16,-7 43,-30 60,-51 c31,-39 125,-100 155,-100 c41,0 -7,98 -69,142 c-25,18 -45,35 -45,39 c0,4 20,11 44,14 c36,6 56,1 114,-24 c45,-20 87,-31 117,-31 l46,0 l-18,31 c-37,62 -90,124 -117,137 c-24,12 -33,11 -80,-12 c-29,-14 -69,-26 -89,-26 c-30,0 -34,3 -30,19 c3,11 22,35 44,54 c44,40 48,63 18,101 c-29,37 -55,32 -104,-20 c-43,-45 -47,-56 -60,-140 c-5,-34 -12,-44 -41,-57 c-19,-10 -46,-17 -60,-17 l-26,0 l38,51 c29,40 39,63 42,105 l4,53 l-29,-8 c-75,-22 -119,-69 -128,-139 c-3,-26 -9,-53 -14,-61 c-7,-13 -117,-45 -351,-101 c-47,-11 -110,-27 -140,-35 c-65,-18 -211,-20 -227,-4 c-9,9 -6,23 12,57 c24,44 22,70 -4,87 c-6,3 -7,21 -4,40 c7,46 -13,123 -43,162 c-32,42 -30,49 11,63 c19,6 44,23 55,37 c41,52 50,146 15,159 c-8,3 -46,-9 -84,-26 c-54,-25 -72,-39 -80,-61 c-5,-16 -13,-29 -16,-29 c-13,0 -94,63 -99,76 c-3,8 13,35 35,61 c93,113 107,131 141,184 c49,77 125,121 179,104 c12,-4 52,-35 88,-69 c72,-68 137,-96 185,-80 l26,9 l-29,60 c-34,72 -68,95 -152,102 c-47,5 -59,9 -59,23 c0,33 137,55 173,28 c9,-7 25,-33 35,-58 c18,-43 111,-140 133,-140 c22,0 32,49 19,95 c-10,36 -22,52 -56,76 c-43,30 -58,59 -29,59 c8,0 38,-21 66,-46 c51,-45 54,-46 101,-40 c29,4 56,2 69,-5 c21,-11 21,-10 15,27 c-10,52 -28,79 -77,111 c-39,26 -42,26 -87,13 c-59,-17 -114,-19 -119,-4 c-2,7 12,22 32,34 l37,23 l-6,91 c-11,172 -13,191 -23,216 c-19,44 -51,65 -104,66 c-81,2 -93,4 -109,14 c-25,17 24,50 74,50 c45,0 105,38 92,58 c-4,7 -30,19 -59,27 c-122,35 -192,14 -216,-68 c-13,-41 -19,-49 -50,-58 c-20,-6 -50,-9 -66,-7 c-28,3 -29,4 -11,18 c56,46 66,60 66,92 c0,66 -29,72 -100,20 c-51,-37 -68,-62 -76,-110 c-5,-33 -14,-49 -40,-69 l-34,-25 l-45,41 c-24,22 -54,41 -66,41 c-22,0 -22,-3 -3,-101 c4,-22 -5,-35 -55,-82 c-61,-56 -194,-137 -225,-137 c-15,0 -17,8 -11,58 c3,31 13,76 21,99 c14,37 19,42 56,48 c47,8 146,90 118,98 c-8,2 -30,9 -49,15 c-28,10 -38,9 -51,-3 c-9,-8 -22,-15 -28,-15 c-15,0 -16,35 -1,61 c16,31 89,79 121,79 c35,0 39,31 6,54 c-36,25 -67,19 -104,-19 c-18,-19 -38,-35 -44,-35 c-22,0 -40,67 -34,124 c5,41 3,59 -10,77 c-23,33 -21,43 23,107 c94,140 238,215 311,165 c34,-23 40,-33 40,-68 c0,-16 8,-41 18,-55 c26,-37 110,-120 122,-120 c6,0 10,26 10,60 c0,54 -3,63 -35,99 c-45,50 -44,61 5,61 c74,0 87,-13 94,-94 c13,-138 21,-189 32,-193 c18,-6 72,63 85,107 c11,37 10,46 -10,87 c-25,52 -21,64 17,42 c21,-11 30,-28 42,-78 c13,-54 22,-70 59,-102 c50,-45 66,-48 74,-17 c8,27 -9,152 -23,179 c-12,21 -45,40 -105,59 c-22,7 -43,17 -46,23 c-4,5 9,34 29,63 l36,54 l56,-1 c33,0 85,-11 130,-27 c85,-31 110,-58 130,-144 c7,-29 21,-77 32,-105 c15,-42 24,-53 42,-53 c17,0 24,9 34,45 c8,31 9,52 2,71 c-14,35 -8,39 29,19 c35,-18 37,-26 16,-85 c-8,-23 -15,-63 -15,-89 c0,-28 -8,-62 -20,-84 l-21,-39 l23,7 c42,13 67,34 94,81 l27,46 l15,-28 c13,-24 13,-33 -2,-79 c-22,-71 -21,-88 15,-162 c34,-72 44,-72 80,-2 c29,58 25,114 -17,203 c-19,43 -34,86 -32,97 c3,19 6,18 46,-13 c99,-75 106,-79 142,-76 c44,4 43,21 -5,95 c-28,43 -43,55 -90,72 c-31,12 -73,21 -93,21 c-30,0 -50,10 -100,50 c-34,28 -62,55 -62,60 c0,6 26,10 58,11 c67,1 126,19 130,42 c3,17 -101,81 -163,100 c-32,9 -39,7 -86,-26 l-51,-36 l-73,34 c-116,52 -115,52 -82,64 c16,6 35,11 43,11 c20,0 107,45 157,81 c83,60 141,58 207,-6 c44,-43 97,-65 155,-65 c43,0 46,1 40,23 c-17,56 -65,95 -147,121 c-51,16 28,52 94,43 c29,-4 49,-16 81,-49 c23,-25 63,-59 90,-77 c40,-27 48,-30 53,-16 c15,37 -5,90 -46,125 c-22,20 -40,39 -40,42 c0,4 20,10 44,13 c37,6 53,2 105,-25 c76,-40 105,-37 183,17 c57,38 85,73 75,91 c-4,5 -60,15 -125,22 c-117,12 -121,12 -185,-11 c-36,-13 -69,-20 -73,-16 c-4,3 11,26 33,50 c23,24 46,53 52,65 c13,25 4,29 -82,38 c-57,6 -66,4 -89,-17 c-14,-13 -34,-47 -43,-76 c-22,-70 -49,-103 -85,-103 c-16,0 -50,-10 -75,-22 c-24,-12 -47,-19 -51,-15 c-3,3 -1,20 5,38 c6,18 11,46 11,63 c0,35 -45,109 -63,103 c-6,-2 -23,-26 -37,-53 c-20,-39 -25,-61 -23,-111 l3,-62 l-90,-51 c-93,-52 -177,-80 -240,-80 c-57,0 -153,29 -180,55 c-14,13 -38,27 -55,30 c-56,12 -56,12 -43,39 c17,39 43,41 102,10 c61,-32 108,-28 153,11 l28,24 l-58,25 c-32,14 -64,26 -73,26 c-8,0 -24,5 -35,11 c-19,10 -20,12 -4,29 c18,20 49,34 111,49 c57,15 83,47 94,117 c13,77 13,114 -1,114 c-19,0 -166,-111 -177,-133 c-6,-12 -18,-40 -27,-62 c-19,-49 -43,-75 -66,-75 c-15,0 -16,5 -8,32 c12,43 12,105 -1,128 c-13,25 -63,59 -101,70 l-32,9 l7,-37 c4,-20 11,-66 17,-101 c5,-35 18,-79 29,-96 c24,-38 26,-88 5,-105 c-20,-16 -35,-4 -35,28 c0,45 -50,98 -109,117 l-23,7 l3,-80 c3,-64 9,-86 26,-109 c70,-89 76,-103 65,-128 c-16,-35 -72,-67 -202,-115 c-187,-68 -213,-83 -270,-155 c-62,-78 -143,-149 -195,-171 l-38,-15 l7,43 c3,24 11,86 17,137 c12,116 36,189 99,306 c50,94 70,168 70,263 l0,54 l36,-21 c19,-12 45,-21 57,-21 c25,0 87,35 87,49 c0,12 -57,45 -103,60 c-48,16 -54,28 -28,54 c18,18 24,20 39,9 c39,-28 93,-52 114,-52 c29,0 98,46 98,65 c0,15 -68,55 -95,55 c-9,0 -15,9 -15,25 c0,29 9,30 65,10 c22,-8 46,-15 54,-15 c25,0 131,53 131,66 c0,19 -48,73 -81,89 c-45,24 -72,18 -113,-24 c-39,-40 -77,-56 -94,-39 c-5,5 -7,28 -5,51 c3,30 -2,51 -16,75 c-26,41 -44,41 -69,0 c-32,-52 -35,-81 -16,-141 l17,-56 l-26,-40 c-32,-48 -57,-54 -57,-13 c0,57 -65,127 -112,120 c-21,-3 -23,-8 -20,-52 c1,-27 18,-87 38,-137 c40,-99 55,-181 43,-243 c-12,-65 -48,-154 -75,-184 l-24,-27 l-20,24 c-25,30 -25,45 2,81 c19,27 20,33 9,71 c-12,40 -66,107 -77,97 c-2,-3 0,-27 6,-53 c18,-80 -10,-75 -55,9 l-29,56 l22,29 c35,48 29,86 -22,137 c-24,24 -48,44 -54,44 c-14,0 -22,-36 -22,-108 c0,-46 -3,-63 -12,-60 c-7,2 -36,38 -64,79 l-50,74 l-64,3 l-63,3 l17,-26 c13,-19 16,-37 11,-65 c-5,-32 -3,-40 14,-49 c11,-6 34,-11 51,-11 c39,0 90,-21 114,-49 l19,-21 l-41,0 c-55,0 -82,-26 -82,-80 c0,-35 3,-40 23,-40 c13,0 52,14 86,31 l63,32 l26,-20 c28,-21 60,-68 52,-77 c-3,-2 -26,1 -52,6 c-40,10 -54,8 -87,-7 c-22,-10 -47,-25 -56,-35 c-13,-15 -12,-18 23,-34 c65,-32 90,-36 134,-20 c76,26 85,22 108,-52 c42,-137 17,-209 -54,-153 c-20,16 -25,26 -20,45 c7,28 -21,66 -68,90 c-26,14 -78,19 -78,9 c0,-3 18,-38 40,-77 c48,-84 43,-99 -23,-80 c-40,11 -43,10 -68,-17 c-15,-16 -32,-52 -39,-80 c-17,-73 -3,-83 48,-37 c22,20 43,33 45,29 c3,-5 0,-27 -6,-50 c-13,-50 4,-123 29,-123 c13,0 52,73 102,193 c22,51 82,28 82,-32 c0,-38 -54,-151 -88,-186 c-34,-34 -48,-40 -187,-84 c-38,-12 -101,-41 -138,-63 c-38,-22 -70,-38 -72,-36 c-1,1 1,30 6,63 c5,33 6,94 2,136 l-6,77 l57,16 c56,17 58,18 86,79 c15,34 31,77 34,95 c5,29 3,32 -20,32 c-37,0 -79,-25 -105,-62 c-48,-69 -69,-66 -57,10 c11,69 18,77 63,73 c56,-4 102,30 120,92 c8,28 15,59 15,69 c0,19 -1,19 -27,1 c-42,-28 -81,-43 -114,-43 c-27,0 -29,2 -18,21 c6,11 31,30 56,41 c63,28 77,63 51,132 c-10,28 -21,57 -24,65 c-7,20 -44,-18 -96,-98 c-35,-53 -44,-76 -48,-125 c-4,-46 -9,-62 -22,-64 c-10,-2 -19,6 -23,20 c-4,13 -15,31 -24,42 c-17,19 -83,56 -101,56 c-17,0 -11,-92 9,-137 c12,-25 35,-52 59,-68 c43,-28 62,-60 62,-105 c0,-38 -13,-38 -40,1 c-21,29 -34,37 -89,54 c-23,7 -24,6 -19,-43 c6,-62 28,-98 73,-119 c37,-18 60,-60 50,-92 c-6,-18 -140,-101 -165,-101 c-7,0 -9,16 -4,48 c6,45 4,50 -34,92 c-22,25 -43,42 -47,38 c-4,-4 -10,-36 -12,-71 c-4,-51 -1,-73 16,-112 c22,-49 29,-125 11,-125 c-5,0 -21,18 -35,40 c-26,42 -52,54 -104,48 l-31,-3 l29,-61 c31,-67 36,-71 96,-94 c45,-18 53,-39 35,-95 c-13,-40 -52,-65 -99,-65 c-22,0 -46,14 -88,51 c-69,60 -77,77 -69,149 c8,81 37,155 95,244 c107,164 141,259 161,451 c6,55 17,122 25,149 c8,27 15,75 15,106 c0,31 5,83 11,115 c6,32 12,153 14,269 c3,225 19,478 31,498 c26,45 86,105 133,135 c53,34 56,35 81,19 c65,-42 113,-58 153,-53 c40,5 93,36 91,53 c-3,14 -137,86 -171,91 c-18,3 -33,9 -33,13 c0,4 18,27 39,52 c26,29 54,49 81,57 c65,19 82,56 78,163 c-2,48 -8,91 -12,95 c-4,5 -39,-26 -77,-67 c-53,-59 -69,-84 -74,-115 c-3,-22 -8,-52 -11,-66 c-6,-29 -59,-97 -69,-88 c-3,4 -1,34 6,67 c11,54 11,63 -5,87 c-15,23 -20,25 -31,14 c-19,-21 -52,-118 -60,-174 c-11,-89 -14,-95 -62,-125 c-57,-36 -63,-37 -63,-5 c0,33 56,239 81,294 c11,26 62,88 127,155 c59,61 123,131 142,156 c82,110 210,210 284,224 c59,11 116,-10 167,-63 c52,-54 77,-114 86,-207 l6,-62 l-34,-7 c-56,-12 -118,-95 -119,-159 l0,-39 l44,41 c44,40 81,63 124,76 c20,7 22,4 22,-33 c0,-51 -34,-81 -93,-81 c-32,0 -46,-6 -71,-33 c-29,-31 -62,-105 -51,-116 c13,-12 119,23 150,51 c19,16 39,28 44,26 c6,-1 -1,-30 -15,-63 c-20,-47 -24,-73 -21,-120 c6,-111 59,-173 108,-129 c22,20 59,85 59,105 c0,6 -18,48 -40,92 c-28,60 -38,90 -34,110 c7,31 22,36 30,10 c18,-57 37,-84 76,-106 c51,-29 98,-42 98,-27 c0,28 -89,170 -133,212 c-38,37 -48,53 -45,74 c5,42 24,39 58,-8 c54,-74 131,-99 184,-57 c14,11 26,24 26,29 c0,14 -147,108 -195,125 c-69,23 -103,43 -109,62 c-3,10 -10,51 -16,92 c-6,41 -13,84 -16,97 c-5,19 -2,24 12,24 c15,0 134,-29 142,-35 c1,-1 -5,-18 -13,-38 c-13,-32 -13,-41 -1,-70 c7,-19 26,-44 42,-56 l29,-23 l3,28 c6,65 35,164 47,164 c22,0 45,-12 45,-23 c0,-6 -9,-30 -21,-54 c-34,-70 -4,-149 70,-188 l28,-14 l12,77 c11,67 10,82 -3,115 c-15,35 -15,37 2,37 c33,0 62,-30 77,-83 c30,-103 79,-148 181,-164 c42,-7 43,3 9,98 c-40,113 -65,138 -146,153 c-36,6 -75,37 -62,49 c3,4 29,7 56,7 c74,0 112,23 143,86 c15,30 24,57 21,60 c-13,14 -112,-21 -154,-53 c-57,-44 -102,-63 -145,-63 c-64,0 -79,40 -21,54 c44,11 71,33 93,76 c17,34 27,90 16,90 c-2,0 -34,-14 -72,-30 c-52,-24 -83,-46 -126,-93 l-57,-62 l-73,1 c-104,3 -298,76 -298,113 c0,4 45,15 100,25 c93,15 105,20 192,77 c120,79 169,104 292,145 c227,78 343,91 429,50 c47,-23 64,-55 72,-137 c4,-35 11,-77 17,-93 c12,-30 116,-118 130,-110 c4,3 8,31 8,62 c0,55 -1,57 -55,108 c-49,47 -55,57 -55,93 c0,23 4,41 9,41 c24,0 96,-94 136,-177 c40,-83 45,-100 45,-163 c0,-48 -4,-72 -12,-74 c-7,-3 -25,-7 -40,-10 c-34,-8 -58,-43 -65,-94 c-8,-62 12,-69 81,-25 c47,29 60,33 67,22 c20,-31 5,-61 -45,-88 c-64,-34 -92,-90 -76,-151 c6,-22 19,-44 29,-49 c15,-8 22,-4 39,28 c25,44 59,77 69,67 c4,-4 0,-29 -10,-55 c-32,-91 -23,-112 69,-171 c78,-49 86,-46 92,37 l4,58 l-56,63 c-50,57 -69,92 -48,92 c4,0 23,-18 42,-40 c30,-34 44,-42 94,-51 c39,-7 62,-7 69,0 c13,13 -94,133 -156,173 c-26,17 -52,39 -57,49 c-11,20 -13,79 -3,79 c4,0 28,-22 53,-50 c41,-44 51,-50 86,-50 c50,0 68,12 59,38 c-10,32 -101,108 -146,121 c-48,15 -84,61 -94,121 c-4,24 -15,68 -25,97 c-17,51 -17,53 1,53 c10,0 40,-8 66,-19 c26,-10 81,-26 121,-36 c39,-9 72,-20 72,-23 c0,-3 -11,-20 -25,-38 c-38,-50 -45,-75 -29,-106 c14,-27 107,-108 124,-108 c5,0 6,47 3,104 c-6,111 -1,126 39,105 c52,-27 59,-38 43,-76 c-19,-44 -6,-95 37,-147 c52,-63 58,-53 71,123 c3,43 17,48 53,18 l28,-24 l-18,-47 c-31,-81 2,-165 91,-234 l33,-24 l10,27 c18,46 12,112 -15,165 c-14,27 -25,52 -25,55 c0,15 24,0 74,-45 c37,-34 60,-66 72,-98 c34,-91 68,-111 207,-122 c164,-13 168,-1 41,122 c-53,51 -106,98 -117,105 c-12,7 -47,12 -78,13 c-45,0 -60,4 -77,23 c-30,32 -28,37 19,37 c46,0 109,33 109,57 c0,25 -55,71 -95,79 c-26,4 -61,1 -105,-10 c-58,-15 -72,-16 -120,-4 c-43,11 -55,19 -55,34 c0,17 8,19 67,22 c60,3 70,6 92,32 c27,33 62,117 53,127 c-4,3 -26,-2 -50,-11 c-23,-9 -53,-16 -65,-16 c-41,0 -89,-27 -111,-63 c-29,-48 -70,-64 -122,-48 c-54,16 -49,41 12,58 c25,7 56,24 69,38 c25,26 43,104 32,135 c-7,19 -13,17 -90,-32 c-48,-30 -96,-69 -115,-94 c-37,-50 -45,-51 -150,-25 c-98,26 -100,27 -318,167 c-109,70 -143,84 -204,84 c-48,0 -55,3 -55,20 c0,24 188,217 199,204 c4,-5 13,-40 19,-77 c6,-38 16,-74 22,-82 c10,-12 139,-50 146,-42 c2,2 -7,19 -21,37 c-14,19 -34,58 -45,88 c-12,30 -30,66 -40,80 c-27,34 -25,41 15,58 c43,18 55,12 55,-27 c0,-47 26,-97 62,-119 c53,-32 57,-28 42,53 c-19,104 -18,107 14,107 c44,0 53,-11 42,-50 c-18,-64 -13,-109 18,-139 c28,-27 107,-59 119,-48 c3,4 -1,24 -9,44 c-26,65 -51,144 -46,149 c11,11 36,-9 56,-44 c43,-77 61,-87 179,-90 l105,-4 l-7,24 c-3,12 -35,51 -71,86 l-64,62 l-70,0 c-58,0 -71,3 -80,19 c-9,18 -4,21 44,35 c42,12 61,25 90,60 c20,24 36,52 36,62 c0,43 -234,-20 -280,-76 c-21,-25 -32,-30 -67,-30 c-55,0 -58,25 -7,58 c50,33 110,172 73,172 c-24,0 -117,-52 -147,-82 c-17,-19 -40,-58 -50,-87 c-18,-52 -21,-55 -68,-69 c-27,-7 -54,-18 -60,-23 c-21,-17 -22,3 -3,58 c10,31 19,73 19,94 c0,36 -36,129 -50,129 c-18,0 -49,-53 -71,-118 l-24,-73 l23,-39 c41,-71 34,-89 -78,-208 c-55,-58 -116,-116 -136,-129 c-37,-26 -241,-96 -310,-108 c-45,-7 -51,-3 -84,52 c-11,18 -37,44 -60,58 c-22,14 -40,28 -40,32 c0,3 7,30 16,59 c17,51 16,52 -5,83 c-23,33 -77,66 -84,53 c-17,-28 -16,-85 2,-131 l19,-51 l-24,0 c-15,0 -41,17 -69,45 c-49,48 -93,63 -138,46 c-15,-6 -27,-18 -27,-27 c0,-27 53,-70 95,-78 c40,-8 65,-22 65,-37 c0,-4 -25,-15 -55,-24 c-62,-17 -98,-59 -93,-105 c3,-21 9,-25 41,-28 c46,-4 94,23 137,79 c29,36 36,39 79,39 c53,0 84,-23 96,-71 c6,-24 -2,-32 -84,-93 c-94,-71 -103,-74 -316,-125 c-102,-25 -155,-52 -204,-106 c-89,-98 -42,81 73,280 c19,33 52,108 73,168 c57,162 97,202 240,238 c39,10 97,32 129,49 l57,30 l21,-37 c25,-43 65,-62 139,-62 c32,-1 47,3 47,12 c0,25 -59,106 -94,129 c-20,13 -36,26 -36,31 c0,8 89,67 101,67 c4,0 10,-13 14,-30 c7,-33 53,-77 91,-86 c25,-7 94,3 94,13 c0,3 -30,37 -67,76 c-36,39 -61,73 -55,75 c6,2 42,-11 81,-27 c97,-43 119,-41 170,14 c22,24 41,51 41,59 c0,15 -87,56 -119,56 c-11,0 -45,-11 -75,-25 c-94,-43 -119,-32 -85,38 l22,45 l-21,40 l-21,40 l35,32 c19,17 34,36 32,42 c-2,6 -24,17 -49,23 c-24,7 -58,18 -75,25 c-41,18 -72,8 -126,-40 c-43,-38 -68,-50 -68,-32 c1,46 23,189 32,199 c8,9 24,12 58,7 c41,-5 56,-2 101,22 c66,36 89,73 89,142 c0,28 -3,52 -7,52 c-14,-1 -143,-69 -170,-90 c-14,-11 -30,-20 -36,-20 c-19,0 1,81 29,117 c18,24 28,48 27,69 c-1,40 -73,179 -92,179 c-8,0 -19,-15 -23,-33 c-5,-18 -22,-54 -38,-80 c-16,-26 -32,-66 -36,-89 c-5,-35 -2,-47 19,-75 c35,-45 49,-86 42,-120 c-9,-39 -27,-35 -50,10 c-38,73 -51,82 -127,82 c-56,0 -68,-3 -68,-16 c0,-32 44,-76 109,-109 c89,-44 104,-68 95,-145 c-5,-50 -10,-60 -25,-60 c-16,0 -19,8 -19,54 c0,80 -39,117 -147,140 c-31,7 -31,7 -23,-26 c14,-63 38,-104 89,-158 c42,-44 51,-59 51,-89 c0,-48 -37,-124 -94,-192 c-25,-31 -59,-87 -75,-125 c-41,-99 -53,-124 -61,-124 c-17,0 -33,64 -38,153 c-4,88 -3,101 16,126 c24,33 52,112 52,147 c0,26 -33,98 -49,109 c-6,3 -13,-11 -17,-32 c-9,-48 -41,-123 -52,-123 c-5,0 -22,30 -37,67 c-28,65 -28,67 -13,110 c30,82 -12,170 -105,218 c-31,16 -58,27 -62,24 c-5,-6 2,-46 27,-143 c5,-21 12,-45 15,-53 c10,-26 -68,21 -117,71 c-39,41 -49,46 -87,46 c-50,0 -192,-65 -176,-81 c5,-5 27,-19 49,-30 c21,-12 51,-28 66,-35 c22,-13 36,-13 95,0 c46,9 72,11 81,4 c20,-17 14,-27 -23,-42 c-41,-17 -75,-68 -75,-113 l0,-32 l43,24 c32,18 61,24 126,27 l85,3 l23,-34 c24,-35 31,-81 12,-81 c-6,0 -31,14 -56,31 c-39,27 -51,31 -95,27 c-50,-5 -101,-33 -106,-59 c-5,-25 87,-51 173,-50 c69,1 78,-2 106,-27 c30,-26 32,-33 37,-117 c11,-181 7,-247 -16,-320 c-32,-102 -36,-106 -69,-73 l-27,28 l29,30 c25,26 29,38 29,85 c-1,36 -8,64 -21,86 l-20,31 l-27,-58 c-15,-33 -30,-72 -33,-87 c-4,-21 -11,-27 -27,-25 c-34,5 -34,66 0,119 c35,55 30,116 -12,161 c-26,26 -73,58 -88,58 c-3,0 -7,-41 -8,-90 l-3,-90 l-40,21 c-22,11 -56,36 -75,55 c-32,31 -41,34 -90,33 c-66,-1 -142,-19 -147,-36 c-3,-6 11,-19 29,-29 c18,-9 58,-36 90,-59 l56,-42 l-39,-35 c-21,-19 -39,-44 -39,-56 c0,-18 3,-19 41,-9 c29,7 55,7 91,-2 c27,-6 67,-11 89,-11 c48,0 79,-15 79,-36 c0,-13 -7,-15 -32,-10 c-18,4 -56,9 -83,12 c-50,6 -51,5 -93,-40 c-23,-25 -42,-50 -42,-56 c0,-17 47,-30 110,-30 c45,0 71,7 115,30 c71,37 89,37 126,1 c48,-48 39,-116 -26,-195 c-43,-53 -65,-104 -65,-152 c0,-98 -87,-304 -129,-304 c-40,0 -56,51 -22,70 c29,15 61,73 61,110 c0,30 -45,109 -62,110 c-4,0 -17,-19 -29,-42 c-16,-31 -20,-52 -15,-84 c9,-65 -23,-67 -39,-2 c-10,38 -47,69 -94,75 c-71,10 -76,0 -31,-60 c22,-29 54,-63 70,-75 c42,-31 37,-42 -17,-41 c-67,1 -98,-14 -128,-61 c-42,-67 -43,-74 -9,-66 c16,4 59,12 96,19 c37,7 76,21 88,32 c19,17 21,17 40,0 c47,-43 32,-81 -75,-183 c-45,-44 -76,-84 -97,-128 c-17,-35 -35,-67 -40,-70 c-5,-3 -26,10 -47,29 c-33,30 -49,36 -106,42 c-98,11 -131,55 -40,55 c32,0 51,7 73,25 c31,26 64,84 55,98 c-7,12 -132,-2 -164,-19 c-14,-7 -40,-29 -57,-48 c-28,-32 -34,-35 -57,-26 c-15,6 -60,10 -101,10 c-41,0 -74,3 -74,8 c0,4 30,36 66,71 c36,36 84,92 106,125 c23,34 52,73 66,88 l24,26 l41,-29 c60,-43 109,-41 156,9 c20,21 44,52 53,69 l17,30 l-67,0 c-37,0 -81,1 -97,3 c-17,1 -40,0 -53,-4 c-30,-10 -28,6 7,57 c16,24 36,59 44,80 c18,43 24,44 78,17 c69,-36 153,0 185,77 c27,63 22,70 -48,65 c-35,-2 -80,-13 -102,-23 c-21,-11 -41,-18 -43,-15 c-3,3 1,35 8,71 c10,52 23,79 56,122 c28,37 43,65 43,85 c0,31 -37,128 -49,128 c-13,0 -58,-54 -91,-107 l-31,-52 l20,-47 c24,-53 26,-91 9,-129 c-18,-40 -38,-31 -38,18 c0,78 -53,117 -159,117 c-68,0 -79,-14 -38,-47 c12,-10 33,-36 46,-58 c13,-22 43,-59 67,-81 c53,-50 56,-77 17,-155 c-35,-68 -63,-78 -63,-21 c0,69 -79,152 -160,168 c-31,7 -32,6 -24,-17 c5,-13 9,-42 9,-64 c0,-39 -1,-40 -36,-43 c-55,-5 -84,-41 -85,-105 c-2,-78 -2,-81 -25,-106 c-24,-26 -38,-16 -39,29 c-1,54 -58,110 -112,110 c-16,0 -28,-2 -28,-5 c0,-17 48,-127 71,-164 c34,-53 35,-64 9,-106 c-15,-25 -22,-58 -27,-132 l-6,-98 l-107,-105 c-87,-85 -114,-119 -144,-180 c-20,-41 -50,-92 -66,-112 c-28,-35 -129,-94 -149,-86 c-5,1 -1,28 9,61 c10,31 23,112 30,180 c6,67 17,157 25,200 c13,74 17,82 68,136 c65,68 86,106 94,170 c5,46 8,49 43,60 c56,17 73,41 73,106 c0,31 -3,58 -6,62 c-6,5 -32,-10 -105,-63 c-29,-21 -34,-15 -39,43 c-4,46 -3,49 29,63 c49,22 63,60 50,133 c-6,33 -13,62 -16,64 c-12,12 -82,-81 -105,-141 c-12,-29 -12,-29 -31,-10 c-11,11 -24,41 -29,68 c-5,29 -18,57 -32,70 c-24,23 -136,62 -146,52 c-3,-3 6,-19 21,-36 c14,-17 26,-38 26,-45 c0,-30 24,-64 52,-76 c36,-15 58,-36 58,-54 c0,-11 -6,-12 -26,-5 c-37,14 -106,12 -128,-5 c-19,-14 -19,-15 -1,-35 c23,-25 75,-40 141,-40 c40,0 55,-5 72,-23 c12,-13 22,-33 22,-45 c0,-21 -1,-21 -34,-6 c-23,11 -45,14 -69,10 c-66,-12 -62,-27 25,-85 c44,-29 82,-60 85,-68 c10,-26 -11,-66 -46,-90 c-43,-29 -51,-29 -51,0 c0,13 -7,47 -16,77 c-13,43 -31,69 -93,134 c-89,93 -110,127 -118,195 c-6,56 13,183 34,226 c21,40 85,125 95,125 c5,0 17,-20 28,-44 c20,-49 43,-67 107,-90 c37,-13 42,-13 47,1 c10,26 -22,107 -61,152 c-19,23 -34,43 -32,45 c2,2 14,9 27,15 c29,16 41,2 72,-81 c23,-63 51,-89 115,-107 c22,-6 43,-11 48,-11 c16,0 5,51 -23,104 c-17,31 -27,56 -24,56 c4,0 29,-13 56,-30 c70,-43 137,-36 196,20 c28,26 21,38 -47,78 c-38,22 -55,26 -110,24 c-77,-2 -171,15 -171,31 c0,6 20,30 45,53 c28,25 45,49 45,64 c0,23 -39,100 -50,100 c-4,0 -28,-22 -54,-49 c-30,-33 -50,-66 -58,-96 c-8,-31 -24,-57 -46,-76 c-37,-33 -79,-40 -67,-11 c28,69 28,69 -10,132 c-20,34 -42,59 -47,58 c-6,-2 -19,-26 -30,-53 c-21,-55 -20,-110 2,-186 l13,-46 l-43,-52 c-49,-58 -75,-67 -66,-23 c3,15 13,76 21,136 c20,141 32,189 66,257 c63,127 202,273 339,356 c48,29 173,61 274,69 c77,6 88,4 141,-20 l58,-26 l-47,-50 c-46,-49 -47,-50 -40,-102 c4,-29 10,-57 14,-61 c10,-11 77,69 92,110 c14,37 41,44 58,14 c18,-34 11,-58 -22,-85 c-18,-15 -39,-31 -45,-37 c-18,-14 -16,-75 3,-140 c21,-70 22,-71 45,-58 c34,18 60,70 54,107 c-7,40 10,68 31,51 c7,-6 18,-35 25,-65 c12,-51 16,-58 76,-99 c35,-25 70,-45 77,-45 c17,0 26,22 26,65 c0,54 -18,81 -72,106 c-55,26 -81,56 -76,89 c3,20 4,20 40,-5 c27,-18 50,-25 85,-25 c79,0 83,11 25,68 c-45,44 -57,50 -103,54 c-45,5 -58,11 -86,42 c-33,35 -45,72 -20,64 c123,-44 111,-43 152,-18 c38,23 75,58 75,71 c0,4 -18,14 -40,23 c-50,20 -131,20 -185,1 c-56,-21 -86,-19 -136,9 c-24,13 -62,27 -84,30 c-65,11 -75,16 -75,37 c0,18 5,19 79,13 c76,-6 80,-6 124,24 c24,17 57,46 72,64 c24,29 26,33 11,36 c-10,2 -50,-4 -89,-13 c-111,-25 -107,-25 -107,-5 c0,19 71,89 93,91 c6,1 42,0 78,-1 c51,-1 76,3 108,20 c52,26 60,45 32,73 c-17,18 -31,21 -86,19 c-35,-1 -67,3 -70,9 c-6,9 22,40 113,121 c51,46 67,96 47,143 c-39,95 -140,11 -160,-132 c-5,-38 -16,-62 -42,-92 c-19,-23 -38,-41 -43,-41 c-4,0 -13,28 -19,61 c-6,34 -18,73 -27,87 l-17,26 l-22,-28 c-39,-48 -45,-87 -24,-148 c10,-29 18,-66 19,-81 c0,-36 -26,-87 -45,-87 c-18,0 -18,4 -6,48 c13,44 -1,74 -50,108 c-44,30 -53,27 -69,-22 c-13,-39 -9,-64 22,-140 c36,-88 0,-147 -112,-188 c-156,-56 -217,-92 -313,-183 c-83,-79 -92,-86 -95,-64 c-7,45 8,71 59,102 c61,38 79,71 86,160 c7,82 -2,87 -49,28 c-66,-82 -86,-104 -92,-98 c-10,10 -26,108 -20,124 c4,8 14,15 24,15 c31,0 80,49 79,78 c-1,40 -24,97 -39,97 c-7,0 -24,-22 -38,-48 c-35,-63 -57,-60 -57,8 c0,45 3,51 30,64 c64,29 105,92 105,158 c0,53 -9,61 -47,51 c-29,-8 -51,-29 -112,-108 l-19,-25 l-17,40 c-15,36 -19,75 -15,143 c1,13 -11,40 -28,60 c-23,29 -43,41 -95,56 c-37,11 -69,17 -71,15 c-8,-8 20,-104 43,-153 c13,-25 39,-56 61,-71 c24,-16 40,-36 40,-47 c0,-19 0,-19 -32,0 c-38,23 -104,45 -118,40 c-12,-4 23,-72 54,-107 c11,-13 45,-39 74,-58 c50,-32 92,-83 92,-110 c0,-22 -20,-14 -54,22 c-30,31 -39,35 -85,35 c-39,0 -51,-4 -51,-15 c0,-27 64,-86 130,-118 c61,-30 92,-59 78,-72 c-3,-4 -20,1 -36,9 c-32,17 -142,34 -142,22 c0,-23 46,-90 81,-118 c103,-83 94,-70 93,-145 c-1,-78 -21,-146 -76,-255 c-27,-56 -41,-100 -49,-155 c-5,-43 -13,-87 -16,-97 c-5,-18 -7,-18 -25,5 c-38,47 -65,95 -78,134 c-7,22 -28,69 -46,104 c-19,35 -34,69 -34,75 c0,6 16,31 35,55 c19,24 35,55 35,69 c0,14 -16,54 -36,90 l-37,66 l-18,-23 c-12,-14 -19,-39 -19,-65 c0,-64 -15,-77 -35,-30 c-28,65 -29,97 -6,142 c26,51 29,146 5,180 c-8,12 -20,19 -26,16 c-23,-14 -48,-91 -48,-147 l0,-59 l-32,19 c-31,18 -70,68 -110,142 c-14,26 -23,31 -53,31 c-44,0 -142,-27 -151,-41 c-15,-24 50,-70 136,-95 c87,-27 150,-64 150,-90 c0,-19 -17,-18 -48,4 c-15,11 -38,22 -52,25 c-26,7 -107,-10 -115,-23 c-10,-16 105,-77 168,-90 c34,-6 74,-18 89,-26 c31,-16 78,-80 78,-106 c0,-15 -6,-14 -54,8 c-50,23 -58,24 -101,13 c-42,-11 -49,-10 -57,5 c-5,9 -40,32 -78,51 c-38,19 -71,39 -75,45 c-12,19 -35,11 -35,-12 c0,-59 21,-99 65,-126 c25,-15 45,-32 45,-38 c0,-7 -37,-14 -97,-18 l-96,-7 l-47,51 c-31,34 -54,50 -71,50 c-25,0 -110,-37 -143,-62 c-17,-13 -14,-16 42,-41 c33,-15 71,-27 85,-27 c20,0 24,-4 20,-20 c-4,-13 -17,-21 -42,-25 c-117,-18 -151,-47 -151,-126 c0,-27 4,-49 8,-49 c32,0 105,36 123,61 c11,16 30,34 41,40 c23,12 23,7 2,-88 c-6,-29 -4,-33 14,-33 c29,0 83,58 122,131 c36,68 69,89 140,89 c52,0 52,-20 1,-41 c-28,-12 -46,-29 -60,-58 c-23,-43 -27,-71 -11,-71 c22,0 119,49 151,77 c100,88 167,71 341,-88 c84,-76 117,-123 148,-214 c20,-57 27,-155 12,-155 c-4,0 -31,18 -61,40 c-29,22 -57,40 -62,40 c-6,0 -9,34 -7,79 c3,72 1,82 -21,105 c-24,26 -76,46 -117,46 c-19,0 -20,-5 -16,-62 c4,-46 11,-71 28,-94 c24,-31 31,-54 17,-54 c-10,0 -114,43 -130,53 c-7,5 -13,25 -13,46 c0,45 -31,96 -79,128 c-27,18 -48,23 -102,23 c-38,0 -69,-3 -69,-7 c0,-20 86,-115 122,-135 c24,-13 43,-30 43,-38 c0,-13 -17,-14 -105,-12 c-97,3 -108,2 -140,-20 c-48,-32 -70,-80 -70,-150 c0,-55 1,-58 24,-58 c18,0 45,23 101,84 c80,88 101,104 119,86 c6,-6 3,-17 -12,-33 c-21,-22 -52,-86 -52,-107 c0,-31 102,7 203,76 c53,37 63,39 101,24 c35,-13 33,-30 -3,-30 c-57,0 -101,-62 -101,-142 c0,-24 4,-28 28,-28 c64,0 101,20 142,75 c54,74 93,82 148,31 c35,-31 49,-63 60,-137 c14,-92 42,-141 132,-230 c91,-91 119,-145 129,-247 c7,-74 6,-79 -42,-236 c-16,-54 -37,-59 -37,-9 c0,64 -35,110 -124,164 c-44,26 -83,46 -87,44 c-17,-11 34,-186 61,-210 c23,-20 27,-55 7,-55 c-18,0 -109,-28 -126,-39 c-11,-7 -10,-13 4,-35 c32,-48 71,-63 184,-69 c57,-4 106,-9 110,-12 c18,-19 2,-89 -41,-176 c-56,-111 -82,-236 -71,-339 c6,-60 5,-62 -14,-52 c-11,6 -25,18 -32,26 c-24,29 -139,86 -203,101 c-101,23 -200,63 -228,91 l-25,25 l24,17 c13,9 41,33 63,53 c38,36 38,38 38,112 c0,51 -4,76 -13,80 c-18,7 -105,-76 -122,-117 c-15,-34 -28,-45 -38,-28 c-3,4 6,50 20,102 c35,138 18,191 -75,231 c-65,28 -72,22 -72,-60 c0,-65 2,-72 40,-122 c35,-47 40,-60 40,-106 c0,-29 -2,-53 -4,-53 c-2,0 -18,14 -36,30 c-27,25 -40,30 -82,30 c-27,0 -58,-5 -69,-10 c-19,-11 -19,-12 -2,-41 c32,-54 97,-106 141,-114 c32,-5 46,-14 61,-39 c11,-18 29,-41 41,-51 c31,-28 24,-35 -36,-35 c-51,0 -63,5 -138,54 c-86,57 -95,69 -116,156 c-6,25 -14,54 -17,66 c-3,16 5,29 36,54 c59,46 74,80 69,154 c-4,67 -37,130 -66,124 c-8,-2 -29,-25 -46,-53 c-28,-45 -31,-57 -28,-117 c1,-38 -2,-68 -7,-68 c-11,0 -91,110 -91,126 c0,6 20,29 45,52 c36,33 45,47 45,75 c0,41 -24,114 -48,145 l-18,23 l-47,-78 c-38,-64 -47,-87 -47,-126 c0,-29 -4,-47 -11,-47 c-24,0 -157,70 -163,86 c-9,25 3,40 156,189 l143,140 l3,-38 c2,-26 13,-47 36,-70 c31,-31 99,-61 110,-49 c3,3 6,31 6,63 c0,56 -1,59 -45,95 c-25,20 -45,40 -45,45 c0,13 37,20 75,13 l35,-6 l0,-63 c0,-61 1,-63 44,-103 c42,-39 104,-77 112,-70 c6,7 -34,125 -55,159 c-25,41 -26,49 -5,49 c30,0 75,-42 111,-106 c33,-56 43,-66 78,-75 c40,-11 139,-8 152,4 c11,11 -18,57 -72,113 c-42,44 -58,54 -96,59 c-94,14 -174,85 -95,85 c46,0 85,34 96,83 c8,38 7,39 -27,54 c-65,27 -114,5 -158,-73 c-14,-25 -26,-33 -59,-37 c-23,-3 -60,-9 -83,-13 c-52,-8 -53,0 -13,51 c34,42 37,75 16,145 c-16,55 -36,61 -76,22 c-37,-38 -46,-75 -31,-130 c10,-40 9,-49 -15,-103 c-26,-58 -81,-119 -108,-119 c-9,0 -15,27 -19,98 c-6,84 -13,125 -43,229 c-5,18 3,28 44,58 c52,37 72,73 72,129 c-1,34 -11,51 -54,84 c-47,36 -56,30 -56,-37 c0,-107 -25,-121 -65,-38 l-26,52 l51,53 c56,59 62,84 34,165 c-18,52 -31,57 -89,33 c-41,-18 -52,-50 -38,-112 c12,-50 6,-58 -30,-45 c-22,9 -47,35 -119,124 c-20,24 -33,29 -83,34 c-59,5 -145,-10 -145,-26 c0,-12 111,-106 148,-125 l33,-17 l-48,-32 c-26,-18 -48,-38 -48,-46 c0,-24 102,-53 171,-48 c78,6 115,-10 138,-58 c10,-20 16,-38 14,-41 c-3,-2 -20,7 -38,21 c-62,46 -145,30 -222,-42 c-23,-22 -32,-25 -72,-19 c-35,6 -50,14 -72,43 l-27,35 l-24,-76 c-14,-43 -29,-76 -37,-76 c-7,0 -18,23 -26,55 l-13,54 l36,41 c34,36 37,45 37,99 c0,93 -8,121 -37,121 c-13,0 -37,-7 -52,-14 c-26,-14 -29,-21 -35,-87 c-3,-40 -9,-75 -12,-78 c-3,-3 -14,5 -25,18 c-14,17 -19,39 -19,83 c0,33 -4,67 -9,77 c-9,17 -152,121 -166,121 c-11,0 7,-174 21,-201 c7,-15 34,-39 59,-53 c30,-18 45,-34 45,-47 c0,-16 -4,-19 -17,-14 c-43,17 -70,22 -101,17 c-46,-6 -42,-34 12,-72 c34,-23 56,-30 91,-30 c31,0 57,-7 75,-20 c33,-23 64,-85 55,-108 c-5,-14 -10,-11 -31,16 c-29,37 -72,43 -120,17 c-28,-15 -30,-15 -60,20 c-45,51 -131,228 -150,310 c-27,111 -33,122 -107,195 c-68,65 -70,70 -75,123 c-9,115 49,216 182,316 c50,37 105,75 122,84 c46,24 107,31 134,17 c22,-12 22,-12 -24,-53 c-48,-43 -52,-55 -48,-140 l2,-39 l53,38 c28,20 63,48 75,62 c19,20 26,23 33,11 c20,-32 8,-48 -55,-70 c-57,-20 -86,-69 -86,-141 c0,-33 4,-58 10,-58 c6,0 30,18 54,40 c66,61 86,48 46,-30 c-11,-22 -20,-49 -20,-61 c0,-29 35,-101 59,-123 c17,-16 20,-13 60,45 c46,70 50,93 21,149 c-21,41 -26,80 -11,80 c5,0 25,-16 44,-35 c30,-30 42,-35 80,-35 c28,0 52,6 61,16 c15,14 14,19 -14,54 c-44,55 -88,90 -114,90 c-12,0 -30,6 -39,13 c-18,13 -45,102 -34,113 c3,4 23,-6 43,-21 c28,-21 46,-27 81,-27 c52,1 153,44 153,66 c0,8 -29,30 -65,50 c-75,41 -143,48 -198,20 c-31,-17 -31,-17 -62,19 c-33,40 -69,57 -118,57 l-31,0 l20,21 c12,11 61,34 110,50 c111,38 175,81 265,181 l71,78 l65,0 c79,0 119,17 176,77 c63,66 64,71 21,89 c-48,20 -85,13 -135,-27 c-35,-27 -39,-29 -39,-11 c0,21 49,87 80,109 c11,8 40,20 66,28 c26,7 57,24 70,36 c26,25 58,101 69,167 l7,42 l-37,0 c-49,0 -91,-24 -111,-63 c-19,-37 -44,-67 -56,-67 c-13,0 -10,28 7,61 c25,47 35,122 24,165 c-11,41 -116,154 -142,154 c-10,0 -16,-22 -20,-86 zm-3126,-366 c39,-29 41,-33 22,-36 c-12,-2 -37,5 -55,15 c-18,10 -51,20 -72,23 c-63,8 -58,30 7,30 c45,0 61,-5 98,-32 zm2854,-78 c14,-5 24,-20 28,-39 c5,-22 20,-39 61,-65 c80,-51 81,-72 8,-172 c-35,-48 -141,-107 -278,-155 c-104,-36 -162,-71 -224,-133 c-24,-26 -48,-46 -52,-46 c-12,0 -10,138 3,226 c9,59 19,85 43,117 c48,62 60,66 94,34 c23,-22 37,-27 78,-27 c50,1 155,36 161,55 c5,15 -119,75 -156,75 c-34,0 -39,14 -14,42 c22,25 29,23 64,-17 c28,-32 36,-35 84,-35 c64,0 105,14 105,35 c0,9 -22,38 -50,66 c-27,27 -50,52 -50,56 c0,6 62,-5 95,-17 zm-2378,-512 c12,-13 32,-46 47,-75 l26,-51 l-43,-25 c-23,-14 -51,-34 -61,-46 c-11,-12 -22,-21 -25,-21 c-4,0 -20,24 -36,53 l-28,54 l26,35 c15,19 27,46 27,60 c0,45 33,52 67,16 zm-283,-51 c62,-35 57,-47 -14,-30 c-54,12 -64,12 -96,-3 c-19,-9 -43,-27 -54,-41 c-21,-28 -55,-111 -48,-118 c3,-3 25,4 49,15 c28,12 66,20 104,20 c41,0 72,6 98,20 c20,11 46,20 56,20 c29,0 51,-38 51,-87 c0,-51 -10,-54 -78,-18 c-41,21 -52,23 -91,14 c-77,-17 -155,-88 -121,-109 c13,-8 121,-23 160,-22 c14,0 48,4 76,7 l51,7 l27,-56 c16,-33 46,-72 72,-93 c42,-36 57,-63 33,-63 c-34,0 -141,49 -190,86 c-51,39 -142,75 -156,61 c-3,-3 5,-22 17,-41 c29,-48 40,-48 -255,10 l-120,23 l-43,48 c-65,72 -68,81 -35,93 c81,28 116,75 129,168 c5,43 4,52 -9,52 c-35,0 -105,-40 -134,-76 c-17,-22 -34,-36 -38,-33 c-3,4 -1,27 5,52 c11,43 15,46 76,72 c54,23 73,26 119,21 c30,-3 79,-9 108,-12 c43,-5 61,-2 93,14 c51,28 109,27 158,-1 zm6986,-17 c34,0 36,-3 60,-61 c22,-56 23,-64 9,-87 c-21,-38 -96,-89 -110,-75 c-8,8 -4,16 16,29 c24,16 27,22 22,62 c-5,42 -31,92 -53,99 c-5,2 -26,-31 -47,-72 c-28,-57 -37,-88 -37,-127 c0,-47 -3,-54 -40,-89 c-39,-37 -116,-69 -167,-69 c-29,0 -29,3 2,85 c37,97 52,123 105,179 c26,28 55,67 65,86 c24,48 32,52 90,46 c28,-3 66,-6 85,-6 zm-6373,-187 c53,-36 86,-66 90,-80 c13,-56 -26,-38 -121,52 c-59,56 -79,85 -60,85 c4,0 45,-26 91,-57 zm-106,-91 c111,-115 149,-174 173,-266 c18,-67 33,-236 21,-236 c-17,0 -200,148 -241,195 c-252,289 -247,278 -164,320 c35,18 56,36 67,60 c9,19 22,35 29,35 c6,0 58,-48 115,-108 zm3509,26 c33,-10 51,-23 72,-53 c50,-72 31,-86 -38,-29 c-24,19 -82,53 -129,75 c-89,42 -100,51 -91,75 c5,12 18,8 73,-20 c38,-19 88,-40 113,-48 zm-2485,-163 c145,-38 316,-153 446,-299 c71,-80 80,-95 124,-214 c63,-168 82,-203 155,-292 c69,-85 98,-135 141,-252 c36,-99 55,-251 42,-353 c-8,-67 -9,-70 -35,-73 c-33,-4 -36,8 -8,33 c26,24 26,73 -2,130 c-22,45 -32,53 -43,35 c-12,-19 -25,-10 -25,18 c0,44 -20,102 -35,102 c-8,0 -31,-20 -52,-45 c-55,-66 -67,-61 -59,24 c8,79 -1,107 -56,160 c-22,22 -40,31 -58,29 c-23,-3 -26,-8 -33,-77 c-10,-94 -6,-112 44,-166 c28,-31 42,-56 46,-82 c4,-37 3,-39 -40,-61 c-68,-36 -84,-58 -91,-130 l-7,-64 l40,7 c43,7 47,4 31,-24 c-9,-17 -2,-19 78,-25 c66,-5 99,-3 137,9 c66,20 175,11 205,-17 c11,-11 38,-56 59,-101 c21,-45 64,-113 95,-152 c31,-38 56,-75 56,-81 c0,-20 -169,-5 -206,17 c-17,11 -48,19 -68,19 c-30,0 -45,-8 -81,-45 c-38,-38 -45,-50 -45,-85 c0,-22 2,-40 5,-40 c3,0 24,9 47,21 c29,15 47,18 60,12 c18,-8 11,-16 -56,-72 c-81,-68 -103,-107 -92,-165 c10,-52 103,-133 126,-110 c6,6 13,58 17,117 c6,103 7,109 35,132 c39,33 52,23 26,-20 c-26,-45 -18,-78 30,-127 c51,-54 76,-51 92,10 c9,37 9,64 -1,125 c-16,97 -9,111 52,115 c42,3 47,0 78,-38 c17,-22 39,-57 48,-77 c21,-52 27,-173 13,-263 c-6,-41 -14,-100 -17,-130 l-5,-55 l-92,3 c-50,1 -108,8 -129,14 c-28,9 -40,9 -49,0 c-17,-17 -138,-15 -189,4 c-26,9 -57,13 -76,9 c-22,-4 -45,0 -70,13 c-21,11 -72,29 -113,42 c-161,48 -203,90 -282,282 c-18,45 -22,82 -28,233 c-8,207 -22,257 -102,380 c-51,78 -100,172 -116,225 c-17,53 -33,178 -26,206 c6,25 24,34 24,11 c0,-18 47,-85 68,-96 c14,-7 25,-4 46,13 l28,22 l-37,87 c-31,71 -35,90 -25,102 c7,8 21,15 31,15 c15,0 19,-7 19,-32 c1,-42 19,-74 56,-99 c47,-31 64,-26 64,21 c0,45 8,49 35,20 c35,-38 165,-52 165,-17 c0,21 -59,115 -82,131 c-12,9 -43,16 -68,16 c-84,0 -92,31 -19,71 c24,13 50,36 58,50 c13,24 13,29 -9,59 c-20,28 -27,31 -58,27 c-53,-9 -80,-32 -99,-86 c-15,-43 -22,-50 -49,-56 c-18,-3 -48,-17 -68,-30 c-20,-14 -41,-25 -46,-25 c-5,0 -6,22 -3,49 c7,61 -14,99 -78,142 l-44,29 l-6,-28 c-12,-53 -2,-196 16,-231 c11,-23 15,-44 10,-65 c-10,-45 -10,-96 -1,-140 c8,-36 8,-38 -12,-27 c-11,6 -46,49 -76,96 c-31,47 -74,104 -96,128 c-47,52 -66,100 -104,269 c-9,38 16,60 58,52 c39,-7 199,51 193,69 c-1,7 -20,20 -40,31 c-34,16 -44,17 -102,5 c-36,-7 -68,-10 -71,-6 c-4,4 -2,18 4,32 c10,22 15,24 60,18 c44,-5 55,-2 121,38 l71,42 l-26,28 c-43,45 -79,55 -121,35 c-19,-9 -38,-15 -41,-12 c-2,3 17,29 43,58 l47,53 l-5,63 c-3,35 -7,66 -11,69 c-3,3 -20,0 -37,-7 c-30,-13 -33,-12 -53,16 c-11,16 -33,40 -48,53 c-33,30 -24,55 27,77 c48,20 53,18 60,-20 c8,-38 96,-133 114,-122 c6,4 15,25 21,48 c11,39 10,43 -24,93 c-20,28 -36,54 -36,58 c0,11 62,25 110,26 c25,1 72,-6 105,-14 zm4606,-42 l24,-27 l-24,15 c-14,9 -27,21 -29,27 c-6,19 3,14 29,-15 zm-4995,-278 c2,-11 5,-49 7,-85 c2,-54 -1,-65 -16,-68 c-18,-4 -22,3 -32,60 c-5,31 -12,40 -45,54 c-39,18 -40,19 -40,70 c0,87 5,90 66,37 c30,-26 57,-57 60,-68 zm-200,-97 c9,-18 40,-56 70,-84 c35,-32 56,-62 60,-82 c9,-46 -17,-52 -60,-14 c-43,37 -85,47 -132,32 c-47,-16 -54,-6 -54,76 c0,64 13,87 55,97 c39,9 45,7 61,-25 zm4431,-261 c42,-62 51,-109 30,-153 l-16,-33 l-41,14 c-26,9 -57,12 -86,8 c-36,-5 -44,-3 -44,10 c0,8 15,25 34,36 c40,25 45,35 53,113 c7,73 24,74 70,5 zm-2363,14 c17,-10 54,-26 81,-36 c28,-10 57,-25 67,-32 c9,-8 26,-51 38,-96 c18,-66 21,-98 17,-167 c-3,-47 -11,-98 -17,-115 c-6,-16 -44,-64 -83,-105 c-40,-42 -84,-92 -99,-111 c-21,-29 -35,-37 -72,-42 c-25,-4 -64,-16 -87,-27 c-53,-27 -50,-52 9,-62 c77,-13 77,-17 23,-151 c-22,-53 -47,-121 -55,-152 c-9,-30 -20,-55 -24,-54 c-16,1 -133,191 -152,248 c-28,83 -26,134 9,207 c23,48 39,67 81,94 c52,33 53,34 82,17 c19,-11 52,-17 89,-17 c59,0 61,1 110,51 c27,28 49,54 49,59 c0,15 -67,23 -131,16 c-67,-8 -69,-5 -39,54 c11,22 20,49 20,60 c0,29 21,34 65,16 c56,-24 71,-20 126,31 l50,46 l-53,29 c-29,16 -57,33 -62,38 c-6,6 -22,2 -43,-11 c-46,-29 -57,-21 -33,23 c11,21 20,49 20,63 c0,38 -35,99 -64,113 c-14,6 -26,16 -26,22 c0,17 71,11 104,-9 zm-2083,-36 c24,-14 56,-25 71,-25 c18,0 33,-8 42,-22 c14,-23 33,-178 22,-178 c-10,0 -120,62 -140,79 c-10,9 -24,27 -31,41 c-15,31 -27,130 -16,130 c5,0 29,-11 52,-25 zm1902,-17 c8,-24 26,-61 41,-82 c14,-21 26,-51 25,-65 c0,-24 -1,-25 -12,-7 c-19,31 -46,56 -60,56 c-7,0 -32,-12 -55,-27 c-44,-29 -57,-63 -23,-63 c30,0 121,-88 121,-116 c0,-28 -26,-84 -39,-84 c-5,0 -11,19 -14,42 c-8,60 -35,90 -98,108 c-54,16 -54,16 -57,58 c-3,42 -2,43 42,63 c63,27 83,52 91,110 c4,27 11,49 15,49 c4,0 15,-19 23,-42 zm-307,-129 c19,-11 39,-29 44,-39 c15,-28 13,-110 -2,-110 c-11,0 -98,146 -98,164 c0,12 23,6 56,-15 zm2840,-67 c-4,-11 -33,-45 -66,-76 c-63,-61 -74,-63 -128,-30 c-19,12 -21,18 -11,35 c9,17 17,20 45,15 c37,-8 68,6 124,53 c38,32 45,33 36,3 zm-2652,-183 c25,-28 46,-59 46,-70 c0,-12 -20,-27 -64,-48 c-35,-17 -67,-31 -70,-31 c-9,0 -7,50 3,90 c5,19 12,52 16,73 c3,20 10,37 15,37 c4,0 29,-23 54,-51 zm2634,-115 c21,-6 22,-12 22,-95 c0,-64 6,-103 20,-142 c34,-91 38,-93 88,-36 c53,60 65,111 36,164 c-10,19 -15,37 -12,40 c14,15 98,-47 98,-72 c0,-8 23,-38 51,-68 l51,-54 l-21,-138 c-32,-216 -41,-330 -41,-540 c0,-203 -9,-270 -41,-299 c-16,-15 -23,-15 -43,-5 c-40,22 -52,55 -38,107 c17,63 15,98 -9,155 c-23,53 -30,57 -49,34 c-24,-28 -28,-15 -23,68 l5,82 l52,46 l51,47 l4,87 c4,116 -5,124 -69,57 c-27,-28 -52,-64 -56,-79 c-15,-70 -25,-70 -60,-1 c-14,28 -42,76 -62,105 l-35,54 l33,34 c32,33 33,35 27,102 c-5,71 -43,177 -59,167 c-5,-4 -18,-26 -29,-51 c-11,-25 -28,-58 -39,-73 c-14,-20 -20,-44 -20,-84 c0,-31 -3,-56 -7,-56 c-13,0 -89,64 -118,98 c-36,43 -91,57 -156,41 c-27,-7 -51,-10 -55,-7 c-18,19 69,119 188,215 c97,79 230,120 316,97 zm-3148,-264 c10,-18 8,-20 -20,-20 c-32,0 -38,8 -18,28 c17,17 26,15 38,-8 zm1003,3 c17,-10 3,-24 -62,-58 c-129,-68 -130,-97 -5,-103 l76,-4 l50,53 l50,54 l34,-39 c19,-22 34,-43 34,-47 c0,-4 -24,-21 -54,-38 c-75,-42 -126,-117 -126,-184 c0,-18 5,-19 52,-13 c76,10 114,30 144,75 c15,23 28,41 29,41 c2,0 16,-33 31,-72 c32,-88 40,-97 126,-154 c37,-25 68,-48 68,-51 c0,-16 -83,-113 -97,-113 c-8,0 -31,14 -51,31 c-31,27 -41,31 -79,26 c-58,-6 -193,-88 -193,-117 c0,-21 63,-42 109,-36 c144,18 151,18 151,7 c0,-7 -10,-22 -23,-34 c-13,-12 -43,-48 -66,-79 c-24,-32 -45,-58 -47,-58 c-1,0 -24,18 -49,40 c-25,22 -53,40 -61,40 c-43,0 -184,-105 -184,-136 c0,-20 45,-29 143,-28 c69,1 87,-1 87,-13 c0,-26 -45,-59 -118,-87 c-78,-30 -96,-49 -107,-108 c-4,-20 -13,-45 -20,-55 c-13,-17 -15,-16 -43,11 c-50,47 -66,127 -52,261 c25,243 25,254 -6,356 c-26,83 -29,109 -29,224 c0,123 2,134 33,210 c62,153 84,189 122,202 c31,11 111,8 133,-4 zm1687,-148 c70,-62 82,-67 149,-59 c57,6 96,-4 113,-30 c15,-22 7,-26 -50,-20 c-69,8 -102,-8 -122,-57 c-17,-39 -6,-49 61,-56 c44,-4 66,0 117,21 c55,23 66,25 89,14 c26,-13 89,-115 78,-126 c-3,-3 -32,7 -64,23 c-61,29 -88,29 -126,1 c-27,-20 -14,-40 55,-88 c38,-27 64,-38 89,-38 c20,0 47,-7 60,-16 c21,-15 22,-22 20,-113 c-2,-53 1,-111 5,-128 c12,-46 -9,-43 -68,8 c-42,38 -46,44 -46,88 c0,39 -5,52 -27,73 c-44,41 -95,68 -131,68 c-28,0 -32,-3 -28,-22 c3,-13 8,-40 11,-60 c5,-30 15,-44 50,-68 c25,-17 45,-34 45,-37 c0,-3 -23,-3 -51,0 c-33,4 -61,15 -80,32 c-24,19 -42,25 -79,25 c-44,0 -51,-3 -78,-37 c-33,-42 -66,-103 -59,-109 c2,-2 18,1 36,7 c20,7 61,9 104,6 c55,-5 76,-3 91,8 c25,19 77,19 102,0 c18,-13 17,-14 -19,-15 c-53,0 -72,-13 -91,-60 c-32,-80 -16,-105 41,-65 c21,14 43,25 48,25 c6,0 24,14 40,30 c24,25 36,30 77,30 c36,0 53,-5 71,-22 l22,-23 l-87,-3 l-88,-3 l-41,-70 c-23,-38 -39,-72 -37,-75 c3,-2 34,-7 70,-11 c74,-6 105,6 177,68 c55,49 83,50 111,4 c12,-19 45,-48 74,-65 c82,-47 90,-85 45,-219 c-11,-30 -19,-80 -19,-112 c0,-103 -45,-283 -79,-313 c-16,-15 -19,-15 -33,1 c-32,37 -48,83 -48,140 c-1,78 -14,130 -41,159 c-25,27 -86,47 -126,42 l-26,-3 l27,-32 c14,-17 33,-51 41,-75 c9,-23 23,-57 32,-75 c20,-39 15,-47 -26,-38 c-21,4 -41,22 -66,56 c-34,47 -37,49 -85,49 c-34,0 -67,-9 -105,-27 c-86,-42 -80,-51 87,-122 l37,-16 l-31,-48 c-31,-48 -31,-48 -52,-29 c-68,62 -97,57 -195,-33 c-55,-50 -89,-75 -105,-75 c-37,0 -41,17 -13,53 c46,61 59,96 52,140 c-8,49 -35,99 -50,94 c-5,-2 -27,-32 -47,-68 c-35,-60 -37,-66 -27,-106 c15,-57 6,-88 -30,-103 c-16,-6 -44,-23 -62,-36 c-18,-13 -35,-21 -39,-19 c-4,2 -10,35 -14,72 c-4,37 -9,82 -12,100 c-6,29 -3,33 22,38 c58,13 64,17 64,35 c0,10 -18,31 -40,47 c-39,28 -40,29 -40,94 c0,87 22,120 115,170 c39,21 82,52 96,68 c40,48 59,41 59,-20 c0,-44 4,-55 30,-79 c33,-30 93,-55 109,-45 c6,3 -1,38 -19,88 c-16,45 -27,83 -25,86 c13,12 39,-16 62,-65 c23,-51 31,-59 87,-84 c98,-46 101,-45 100,21 c-1,34 -8,65 -19,82 c-22,34 -75,67 -108,67 c-25,0 -87,43 -87,60 c0,5 16,14 35,20 c48,16 65,44 65,107 c0,61 -8,65 -77,33 c-27,-12 -55,-37 -78,-68 c-37,-52 -51,-62 -90,-62 c-26,0 -35,17 -35,64 c0,43 -28,77 -80,101 c-37,17 -42,17 -57,2 c-15,-14 -14,-20 12,-69 c15,-29 42,-69 61,-88 c19,-20 34,-40 34,-46 c0,-15 -61,-68 -93,-82 c-57,-25 -65,-19 -60,48 c3,34 -2,107 -11,163 c-8,56 -18,131 -22,167 c-3,36 -13,92 -22,125 c-10,40 -16,103 -16,190 c0,192 17,220 194,328 c50,30 86,61 107,91 c18,25 37,46 42,46 c6,0 33,-20 61,-45 zm-802,-454 c102,-51 172,-108 228,-184 c66,-90 80,-123 94,-212 c12,-76 7,-386 -7,-421 c-3,-7 -27,-29 -54,-49 c-40,-29 -49,-40 -49,-66 c0,-58 -13,-69 -86,-69 c-63,0 -65,1 -59,23 c4,12 16,36 26,53 c11,17 19,40 19,51 c0,20 -36,58 -82,87 l-27,18 l-13,-44 c-7,-24 -13,-78 -13,-120 l0,-77 l-72,-66 c-61,-55 -93,-77 -93,-61 c0,2 17,39 37,82 c36,77 37,82 36,190 l-1,111 l56,17 c67,21 105,47 143,99 c44,61 41,67 -46,67 c-68,0 -77,-2 -108,-30 c-56,-49 -64,-41 -51,54 l7,46 l56,1 c90,2 102,8 149,84 c23,38 42,75 42,82 c0,21 -57,15 -110,-12 c-57,-29 -60,-30 -60,-11 c0,8 15,24 34,35 c19,12 37,28 40,37 c10,27 7,80 -11,159 c-21,97 -35,98 -99,3 c-49,-73 -49,-73 -47,-148 c3,-93 -9,-117 -38,-78 c-23,31 -79,68 -103,68 c-37,0 -8,-127 41,-175 c27,-26 35,-43 40,-83 c6,-58 -2,-102 -20,-102 c-6,1 -25,19 -40,42 c-27,38 -31,40 -66,35 c-46,-6 -121,-53 -121,-76 c0,-24 57,-59 120,-73 c104,-23 133,-62 132,-179 c0,-59 -6,-82 -31,-133 c-17,-33 -40,-72 -51,-85 c-20,-23 -21,-23 -34,-6 c-7,10 -22,34 -32,53 c-18,34 -18,35 5,74 c43,75 27,132 -51,189 c-37,26 -43,28 -51,13 c-9,-16 -4,-105 9,-151 c11,-39 -23,-27 -36,12 c-15,45 -35,55 -113,55 c-71,0 -127,-15 -127,-35 c0,-19 85,-94 114,-100 c87,-18 84,-12 28,-50 c-60,-41 -68,-51 -52,-70 c18,-22 89,-19 125,5 c40,27 78,25 112,-4 c25,-21 28,-31 27,-78 c-1,-30 -8,-67 -17,-84 c-22,-41 -103,-118 -116,-110 c-19,12 -87,118 -162,252 c-84,151 -114,190 -232,303 c-49,47 -95,97 -103,113 c-14,27 -14,29 11,38 c14,5 37,13 49,16 c18,4 36,31 75,110 c70,140 77,143 135,51 c64,-103 75,-117 90,-117 c16,0 36,92 36,165 c0,56 -19,84 -73,104 l-28,11 l26,49 c15,26 43,65 63,86 l37,38 l6,-34 c15,-95 109,-219 109,-145 c0,13 9,53 20,88 c28,89 26,118 -10,150 c-38,34 -38,54 3,91 c26,25 50,35 117,48 c47,9 115,17 153,18 c60,1 76,-4 145,-38 zm-4430,-168 c19,-37 35,-121 28,-149 l-8,-29 l-18,35 c-10,20 -37,46 -61,61 c-55,32 -57,57 -9,81 c44,22 57,22 68,1 zm209,-59 c58,-61 61,-69 37,-102 c-21,-30 -44,-28 -44,3 c0,40 -25,89 -54,108 c-14,10 -26,24 -26,32 c0,30 36,13 87,-41 zm-353,-94 c44,-61 46,-80 9,-81 c-16,0 -38,-2 -51,-3 c-13,-2 -25,1 -29,7 c-7,12 17,127 27,127 c5,0 24,-23 44,-50 zm1943,-269 c98,-16 214,-33 258,-39 c44,-6 108,-22 142,-36 c35,-15 73,-26 85,-26 c30,0 52,-15 44,-29 c-4,-6 -43,-39 -86,-74 c-44,-35 -94,-82 -112,-105 c-18,-22 -37,-41 -42,-41 c-4,-1 -21,10 -37,24 c-42,35 -91,41 -158,20 c-61,-19 -121,-72 -139,-122 l-10,-30 l115,-1 c65,-1 123,3 135,9 c11,6 26,8 33,5 c12,-4 12,-11 0,-47 c-10,-28 -13,-58 -9,-89 l6,-47 l-38,-8 c-84,-15 -122,-49 -145,-128 c-8,-29 4,-97 17,-97 c3,0 26,11 52,24 c45,23 101,76 128,122 c16,26 29,11 48,-54 c11,-38 12,-60 5,-79 c-11,-28 0,-48 32,-58 c17,-6 19,-15 17,-73 c-3,-59 1,-73 26,-117 l29,-50 l39,80 c49,103 53,172 10,214 c-15,15 -34,30 -42,33 c-12,4 -13,10 -4,24 c8,14 26,20 75,24 c83,6 93,13 75,48 c-8,15 -26,38 -40,51 c-29,27 -34,66 -10,75 c9,3 36,6 60,6 c28,0 47,5 50,14 c6,15 -32,130 -54,164 c-13,20 -22,22 -93,22 c-47,0 -79,4 -79,10 c0,19 185,196 219,210 c27,11 44,11 95,1 c34,-7 74,-9 88,-6 c14,4 64,-3 112,-14 c48,-12 120,-21 159,-21 c155,0 306,-43 394,-112 c57,-45 64,-54 59,-77 c-3,-14 -9,-49 -12,-78 c-6,-47 -8,-50 -25,-40 c-30,18 -45,-4 -24,-36 c22,-34 10,-38 -55,-16 c-30,10 -66,18 -80,18 c-27,1 -101,-37 -107,-55 c-6,-20 117,-54 195,-54 c86,0 117,-13 185,-78 c61,-59 62,-75 4,-67 c-51,8 -77,-10 -77,-52 c0,-15 -17,-51 -37,-80 c-32,-47 -37,-61 -35,-105 l2,-51 l-22,19 c-48,39 -98,88 -98,96 c0,4 14,29 30,55 c24,38 30,58 30,102 c0,71 -16,131 -35,131 c-8,0 -28,-19 -45,-42 c-26,-35 -30,-50 -30,-105 c0,-85 -15,-79 -57,22 c-38,92 -63,122 -114,135 c-33,9 -98,6 -137,-6 c-20,-6 13,-56 80,-120 c44,-42 63,-54 88,-54 c23,0 42,-10 66,-34 c19,-19 34,-39 34,-44 c0,-12 -42,-2 -79,17 c-29,16 -82,17 -111,1 c-35,-18 -60,-41 -60,-55 c0,-21 152,-56 212,-49 c53,6 53,5 126,-51 c40,-31 79,-70 88,-87 l15,-30 l-44,26 c-24,15 -59,26 -79,26 c-35,0 -119,-37 -125,-55 c-1,-6 31,-27 73,-48 c54,-27 79,-35 92,-28 c9,5 36,12 59,16 c38,6 45,4 83,-31 c23,-21 56,-65 73,-98 c29,-56 32,-69 32,-156 c0,-87 -3,-100 -31,-155 c-17,-33 -34,-72 -38,-87 c-3,-16 -10,-28 -14,-28 c-5,0 -24,21 -42,48 c-19,26 -51,66 -72,89 c-43,48 -46,69 -17,133 c22,50 20,74 -15,128 c-31,49 -64,78 -109,97 c-35,14 -37,14 -37,-2 c1,-38 21,-110 42,-150 c12,-23 19,-45 15,-49 c-9,-9 -72,25 -97,51 c-16,17 -17,26 -8,70 c17,83 -26,195 -76,195 c-20,0 -26,-8 -40,-61 l-18,-61 l26,-37 c14,-20 26,-45 26,-55 c0,-20 2,-20 -84,10 l-50,18 l-48,-27 c-60,-34 -78,-34 -129,0 c-22,15 -71,34 -107,44 c-200,52 -293,79 -338,99 c-69,30 -174,63 -357,110 c-132,34 -169,47 -218,81 c-57,38 -87,73 -72,82 c5,2 26,8 48,12 c64,11 113,44 135,90 c28,58 26,73 -11,77 l-31,3 l35,45 c19,25 37,55 41,68 c7,21 5,22 -51,22 c-37,0 -67,-6 -79,-15 c-51,-39 -45,4 6,45 c22,18 47,45 55,61 c19,37 19,149 0,195 l-15,35 l-34,-26 c-20,-15 -49,-48 -67,-73 c-29,-45 -31,-51 -25,-118 c6,-74 -8,-114 -40,-114 c-11,0 -13,9 -8,40 c8,51 -19,94 -87,139 c-65,42 -73,41 -65,-14 c4,-25 5,-45 2,-45 c-2,0 -20,26 -40,58 c-40,66 -80,107 -116,117 c-58,17 -74,58 -45,115 c19,36 30,38 46,8 c6,-13 33,-46 58,-73 c25,-28 51,-59 57,-70 c5,-10 15,-16 21,-12 c19,12 36,96 30,149 c-7,56 -25,81 -74,105 c-42,19 -42,34 2,77 c58,59 122,90 220,108 c125,23 150,22 352,-11 zm5917,-373 c12,-46 7,-98 -11,-105 c-16,-6 -120,11 -131,21 c-2,3 10,22 27,43 c17,21 36,44 42,51 c5,6 23,12 38,12 c21,0 30,-6 35,-22 zm-3081,-112 c45,-19 63,-42 92,-119 c22,-59 25,-83 25,-190 c0,-137 -13,-234 -34,-255 c-12,-12 -24,3 -87,105 c-127,206 -140,216 -252,197 c-65,-11 -70,-30 -22,-78 c27,-27 44,-36 69,-36 c32,0 86,-32 86,-50 c0,-5 -19,-14 -41,-20 c-34,-9 -50,-9 -83,4 c-23,9 -51,16 -62,16 c-46,0 -94,-87 -94,-171 l0,-52 l36,6 c27,5 54,23 104,72 c66,63 70,65 119,65 c45,0 51,-3 51,-20 c0,-11 -6,-22 -12,-24 c-7,-2 -32,-9 -54,-15 c-26,-7 -48,-21 -59,-37 c-16,-25 -40,-162 -30,-172 c2,-3 38,12 80,31 c56,27 78,43 86,64 c24,61 36,78 56,81 c33,5 55,-37 54,-104 c0,-49 -9,-74 -62,-178 c-33,-67 -72,-150 -85,-186 c-33,-85 -71,-150 -90,-150 c-21,0 -48,49 -89,163 c-53,144 -115,271 -178,368 c-65,99 -97,168 -97,209 c0,16 15,49 35,76 c19,27 46,70 60,96 c13,26 29,49 35,53 c6,3 34,39 64,79 c62,84 102,116 144,116 c25,0 34,-7 49,-37 c21,-45 65,-68 141,-76 c66,-8 68,7 12,78 c-21,28 -49,62 -60,78 l-21,27 l41,0 c22,0 55,-6 73,-14 zm-2421,-108 c-15,-15 -99,-13 -118,3 c-19,16 -18,32 8,74 l21,37 l51,-51 c40,-40 48,-53 38,-63 zm1298,41 c69,-69 79,-97 57,-144 c-9,-18 -19,-49 -23,-69 c-3,-20 -10,-36 -14,-34 c-17,7 -170,197 -170,212 c0,17 67,96 81,96 c5,0 36,-27 69,-61 zm-2460,-36 c0,-22 -12,-58 -31,-92 c-33,-57 -39,-96 -25,-166 c10,-51 -5,-36 -29,30 c-12,33 -35,66 -67,97 c-30,28 -48,54 -45,62 c3,7 28,19 55,25 c35,9 60,24 87,51 c21,22 42,37 47,34 c4,-3 8,-21 8,-41 zm117,23 c16,-14 38,-43 48,-65 c10,-23 22,-41 27,-41 c5,0 16,13 26,29 l16,29 l37,-78 c29,-61 38,-94 41,-146 c4,-78 -5,-86 -56,-55 c-18,12 -48,21 -66,21 c-38,0 -120,-48 -144,-85 c-14,-21 -14,-24 0,-36 c29,-24 118,-23 176,1 c51,21 56,21 91,7 c20,-9 37,-21 37,-27 c0,-6 12,-28 26,-50 c15,-22 25,-43 22,-45 c-2,-3 -28,-9 -56,-15 c-29,-5 -77,-21 -107,-35 c-31,-14 -69,-25 -86,-25 c-41,0 -133,73 -153,123 c-27,64 -21,96 29,154 c64,73 80,131 55,197 c-13,36 -31,147 -24,157 c9,15 32,10 61,-15 zm4547,2 c22,-31 20,-90 -5,-149 c-12,-27 -24,-49 -26,-49 c-3,0 -18,8 -34,17 c-26,16 -31,16 -39,3 c-12,-19 -13,-66 -1,-107 c5,-17 7,-34 4,-37 c-9,-9 -107,63 -128,93 c-41,62 -126,70 -196,19 l-44,-32 l65,-16 c36,-9 74,-21 85,-27 c11,-6 38,-14 61,-17 c47,-8 122,-50 106,-60 c-6,-3 -30,-2 -53,3 c-35,8 -49,6 -81,-10 c-45,-23 -58,-19 -58,21 c0,19 -4,28 -12,26 c-7,-3 -34,-7 -59,-10 l-47,-5 l-22,55 c-13,32 -37,66 -57,83 l-34,28 l51,37 c49,35 53,36 100,28 c56,-10 146,3 169,24 c13,12 12,16 -2,32 c-29,31 -20,37 52,34 c54,-3 77,1 107,17 c51,26 79,26 98,-1 zm-7232,-87 c-1,-46 -7,-91 -12,-101 c-5,-9 -40,-27 -77,-39 c-37,-12 -78,-32 -90,-43 l-22,-20 l-30,22 c-17,12 -31,27 -31,35 c0,7 17,40 39,72 c37,55 60,75 107,87 c11,4 36,22 54,41 c54,55 66,45 62,-54 zm6583,-141 c36,-52 90,-99 128,-112 c28,-10 29,-12 23,-61 c-8,-57 -24,-93 -55,-121 l-21,-19 l0,54 c0,49 -4,58 -32,86 c-39,36 -77,57 -86,48 c-4,-4 -7,-35 -6,-70 c1,-53 6,-71 32,-113 c38,-58 39,-73 10,-121 l-23,-36 l-3,45 c-5,61 -15,70 -82,70 l-58,0 l9,-41 c13,-55 34,-105 59,-136 c22,-28 26,-64 10,-94 c-15,-27 -103,-69 -161,-76 c-60,-7 -61,-3 -21,124 c41,129 61,224 72,346 c10,113 29,173 76,234 c21,27 32,33 63,33 c33,0 42,-5 66,-40 zm-4217,4 c41,-28 92,-164 92,-243 c0,-39 -22,-41 -88,-6 c-26,14 -52,25 -58,25 c-27,0 -34,27 -18,66 c15,37 15,64 -1,142 c-7,30 -6,32 22,32 c15,0 39,-7 51,-16 zm6107,-42 c5,-29 17,-48 50,-76 c43,-35 78,-106 61,-123 c-4,-4 -30,5 -57,21 c-38,21 -58,26 -83,22 c-33,-6 -76,-32 -76,-45 c0,-4 27,-20 59,-36 c45,-21 67,-26 92,-21 c38,7 69,-15 69,-49 c0,-40 -24,-50 -73,-31 c-23,9 -66,16 -93,16 c-46,0 -56,4 -98,41 c-53,47 -65,44 -73,-18 c-3,-27 0,-51 12,-73 c27,-52 3,-59 -36,-10 c-46,57 -87,80 -142,80 c-40,0 -54,-6 -99,-43 c-29,-24 -52,-47 -51,-51 c1,-5 33,-19 70,-31 c67,-23 68,-23 105,-4 c20,10 49,19 63,19 c28,0 75,-40 75,-64 c0,-13 -6,-13 -50,0 c-36,11 -55,12 -69,4 c-20,-10 -51,-48 -51,-62 c0,-3 24,-12 54,-19 c46,-10 60,-9 99,6 c47,18 81,14 91,-10 c4,-12 -3,-15 -33,-15 c-24,0 -44,-7 -53,-17 c-16,-18 -48,-77 -48,-88 c0,-3 27,-5 60,-5 c59,0 59,0 90,45 c34,50 37,51 64,30 c38,-29 12,-66 -109,-155 c-26,-19 -71,-64 -100,-100 c-29,-36 -69,-74 -90,-85 l-37,-19 l-44,46 c-24,26 -44,54 -44,62 c0,9 15,19 38,26 c35,9 81,44 71,54 c-2,2 -31,15 -64,29 c-86,36 -80,52 21,52 c55,0 86,5 98,14 c20,17 50,71 43,78 c-3,3 -32,7 -66,10 c-53,5 -65,2 -106,-22 c-52,-30 -64,-27 -47,10 c7,14 12,34 12,45 c0,22 -46,80 -64,80 c-19,0 -37,-85 -30,-144 c5,-41 3,-59 -11,-80 c-9,-14 -23,-26 -29,-26 c-7,0 -31,27 -55,61 l-43,61 l22,50 c20,46 21,55 9,119 c-16,92 -35,93 -78,4 c-17,-36 -31,-75 -31,-85 c0,-11 -5,-20 -12,-20 c-16,0 -88,71 -88,86 c0,14 225,184 328,247 c107,66 253,128 318,134 c44,5 71,16 128,53 c112,73 122,74 131,22 zm-6976,-18 c27,-34 27,-64 1,-64 c-10,0 -42,-9 -70,-20 l-50,-20 l0,46 c0,66 13,84 60,84 c30,0 43,-6 59,-26 zm1512,-4 c26,-14 24,-32 -7,-61 c-25,-24 -26,-24 -40,-5 c-15,21 -19,58 -7,69 c9,10 31,9 54,-3 zm2231,-17 c32,-35 105,-145 117,-175 c5,-13 30,-66 55,-117 c25,-51 46,-101 46,-110 c-1,-9 -15,-25 -33,-36 c-19,-12 -43,-43 -61,-78 c-23,-46 -33,-57 -53,-57 c-18,0 -23,4 -19,18 c25,86 17,132 -32,185 c-43,45 -57,37 -87,-54 c-30,-90 -29,-101 26,-170 c22,-28 26,-39 16,-46 c-16,-13 -181,-93 -190,-93 c-4,0 -5,64 -2,142 c5,139 6,142 40,198 c68,111 75,135 75,256 c0,97 3,115 21,138 c26,33 49,33 81,-1 zm2460,-44 c75,-48 62,-69 -34,-53 c-36,6 -38,8 -38,45 c0,47 9,48 72,8 zm-2664,-68 c17,-15 22,-31 22,-66 c0,-57 -10,-77 -72,-140 c-48,-49 -49,-51 -46,-105 c5,-93 -13,-77 -98,86 c-16,31 -16,33 8,65 c53,70 61,98 54,175 l-6,72 l58,-33 c31,-18 67,-42 80,-54 zm1889,-22 c30,-19 45,-21 113,-16 c104,7 115,-1 111,-79 c-4,-84 -23,-124 -58,-124 c-15,0 -44,-4 -63,-9 c-177,-45 -231,-53 -288,-42 c-31,6 -67,8 -79,5 c-29,-8 -31,14 -4,45 c19,22 21,22 66,6 c63,-21 81,-21 146,-2 c96,28 100,60 12,98 c-29,12 -54,16 -80,12 c-35,-6 -37,-5 -24,11 c8,10 31,26 52,37 c27,13 39,27 44,49 c8,36 8,36 52,9 zm401,-135 c29,-20 28,-44 -2,-44 c-40,0 -56,11 -56,36 c0,28 24,32 58,8 zm1990,-45 c17,-31 110,-180 119,-189 c2,-2 9,2 14,10 c16,25 5,114 -19,147 c-12,17 -22,34 -22,38 c0,3 19,5 42,3 c37,-3 46,-8 71,-46 c16,-24 46,-54 67,-68 c57,-38 56,-49 -4,-83 c-57,-32 -62,-39 -80,-116 c-11,-48 -12,-50 -71,-71 c-33,-11 -72,-26 -87,-32 c-25,-10 -28,-9 -28,7 c0,21 26,46 58,56 c31,9 49,41 55,98 c4,39 2,47 -12,47 c-30,0 -135,-66 -165,-104 c-28,-34 -31,-44 -29,-97 c2,-58 2,-58 -40,-88 c-23,-16 -51,-43 -62,-60 c-34,-52 -45,-40 -45,50 c0,79 1,82 31,108 c114,96 125,124 51,129 c-36,3 -46,-1 -67,-25 c-21,-24 -26,-26 -35,-13 c-5,8 -10,29 -10,46 c0,25 6,34 28,43 c40,17 106,77 98,89 c-3,5 -19,15 -35,20 c-23,8 -37,7 -65,-9 c-46,-24 -46,-24 -46,9 c0,78 60,86 146,20 c58,-44 144,-98 157,-98 c13,0 7,52 -10,87 c-10,22 -35,47 -66,66 c-49,30 -49,30 -26,43 c41,23 68,17 87,-17 zm-833,-104 c17,0 36,-4 43,-8 c25,-16 8,-125 -26,-167 l-18,-23 l-18,46 c-9,25 -35,62 -57,81 c-45,41 -45,43 -22,68 c13,14 24,17 43,12 c14,-4 39,-8 55,-9 zm-1120,-25 c7,-12 -72,-100 -91,-100 c-21,0 -25,15 -13,50 c15,41 87,77 104,50 zm1590,-9 c0,-8 -29,-39 -65,-70 c-36,-30 -66,-60 -68,-67 c-2,-8 11,-16 32,-20 c28,-5 45,-1 82,21 c45,27 48,27 61,9 c7,-10 13,-28 13,-41 c0,-22 -2,-23 -95,-23 c-52,0 -95,-3 -95,-6 c0,-12 52,-73 75,-88 c20,-13 33,-14 71,-6 c59,13 64,7 64,-78 c0,-44 -6,-75 -20,-102 c-25,-50 -50,-53 -50,-7 c0,17 -5,39 -10,47 c-13,21 -55,-20 -76,-77 c-19,-49 -47,-56 -52,-13 c-2,14 -10,47 -19,73 c-17,53 -65,93 -118,99 c-30,3 -30,3 -26,-42 c5,-67 23,-102 79,-149 c79,-67 95,-137 25,-110 c-37,14 -70,11 -113,-11 c-26,-13 -59,-20 -96,-20 c-47,0 -69,-7 -121,-35 c-65,-36 -100,-42 -132,-26 c-9,5 -43,48 -75,94 c-52,76 -57,86 -45,105 c8,12 26,27 42,33 c24,10 32,9 54,-8 c33,-24 40,-38 48,-86 c6,-40 39,-82 55,-72 c6,3 13,24 16,46 c6,35 10,40 28,35 c12,-2 38,-8 60,-12 c37,-6 38,-6 31,17 c-26,85 -58,119 -110,119 c-47,0 -105,17 -105,31 c0,22 80,94 154,138 c173,103 343,216 386,256 c25,23 54,47 65,54 c26,14 50,10 50,-8 zm-2325,-30 c0,-11 -9,-23 -21,-26 c-31,-10 -37,4 -10,26 c29,24 31,24 31,0 zm500,-16 c11,-13 11,-39 2,-135 c-15,-147 -22,-166 -71,-174 c-64,-10 -93,-6 -138,19 c-64,38 -60,44 38,60 c21,3 47,17 63,34 l28,29 l-51,26 c-63,33 -99,33 -162,1 l-50,-26 l-42,23 c-23,13 -42,28 -42,33 c0,12 135,80 190,96 c107,30 216,37 235,14 zm420,-5 c60,-31 62,-44 5,-37 c-42,6 -52,4 -82,-18 c-28,-22 -63,-71 -63,-90 c0,-14 102,-3 145,16 c35,16 60,20 94,16 c40,-4 53,-12 97,-60 c57,-61 74,-102 51,-125 c-20,-19 -33,-9 -41,32 c-8,39 -41,86 -62,86 c-11,0 -14,-15 -14,-61 c0,-56 3,-65 35,-100 c19,-22 35,-46 35,-54 c0,-30 -51,-174 -71,-199 c-26,-33 -59,-35 -59,-3 c0,13 -13,43 -29,67 l-29,44 l24,31 c14,18 24,45 24,64 c0,39 -27,94 -43,88 c-7,-2 -25,-29 -40,-60 c-40,-79 -67,-74 -67,12 c0,38 -28,75 -77,100 c-43,22 -46,16 -39,-61 c6,-77 4,-73 86,-136 c17,-13 35,-33 41,-43 c10,-19 8,-20 -49,-13 c-57,6 -59,5 -86,-26 c-31,-37 -30,-50 5,-67 c38,-20 80,-15 120,13 c24,16 47,24 66,22 c25,-3 28,-8 31,-42 c5,-53 -12,-88 -67,-139 c-40,-37 -60,-47 -119,-61 c-39,-9 -89,-16 -112,-16 c-38,0 -42,3 -56,35 c-13,32 -13,48 0,138 c8,56 19,115 25,130 c6,16 11,57 11,92 c0,65 28,204 50,246 c22,42 111,158 137,179 c33,25 73,25 123,0 zm-1885,-286 c187,-375 198,-414 154,-526 c-11,-29 -32,-100 -45,-158 c-46,-197 -121,-341 -184,-355 c-37,-9 -96,38 -166,132 c-33,43 -150,168 -260,278 c-111,110 -209,215 -219,234 c-11,22 -16,53 -15,85 c3,67 1,142 -4,171 c-3,18 7,34 44,69 c52,48 81,56 114,31 c36,-27 56,-69 56,-117 c0,-38 6,-54 28,-79 l28,-31 l47,80 c26,43 47,86 47,93 c0,27 -32,61 -76,79 c-24,11 -44,26 -44,33 c0,18 28,43 62,56 c25,9 33,6 83,-38 c37,-32 68,-50 93,-55 c59,-9 92,-7 92,7 c-1,23 -70,106 -102,123 c-43,22 -43,21 -28,39 c7,9 29,15 54,15 c24,0 53,8 71,20 c56,38 62,32 170,-186 zm-1175,106 c14,-9 26,-25 28,-34 c3,-13 -6,-16 -48,-16 c-62,0 -120,25 -120,50 c0,33 94,33 140,0 zm2225,-12 c20,-24 22,-33 17,-125 c-4,-79 -1,-106 12,-131 c9,-18 22,-32 29,-32 c24,0 57,74 57,129 c0,66 18,67 53,2 c34,-62 34,-92 -3,-156 c-25,-44 -28,-56 -20,-84 c13,-48 59,-121 74,-121 c22,0 36,56 36,141 c0,127 34,115 45,-16 c12,-150 12,-155 -32,-250 c-42,-91 -86,-260 -98,-370 c-8,-75 -22,-120 -41,-136 c-12,-10 -24,-1 -70,50 c-31,33 -62,61 -69,61 c-30,0 -34,-113 -5,-170 c24,-47 24,-50 5,-50 c-9,0 -38,20 -64,45 c-61,57 -112,67 -185,35 c-40,-17 -52,-18 -62,-8 c-7,7 -36,68 -63,135 c-28,67 -69,160 -92,205 c-85,169 -169,371 -169,408 c0,39 34,151 58,187 c17,28 73,63 98,63 c26,0 74,-50 74,-78 c0,-13 -16,-42 -35,-64 c-37,-44 -52,-103 -40,-157 c8,-35 10,-36 56,-17 c60,25 82,54 76,97 c-6,44 -1,52 23,39 c15,-8 27,-31 43,-80 c3,-9 -6,-41 -19,-70 c-13,-30 -23,-70 -24,-88 c0,-33 27,-92 42,-92 c15,0 38,46 38,77 c0,38 14,43 31,11 c7,-14 10,-46 6,-91 c-6,-64 -4,-72 20,-103 c14,-19 30,-34 35,-34 c11,0 68,123 68,148 c0,10 -20,38 -45,62 c-42,41 -57,70 -36,70 c5,0 25,-7 44,-15 c20,-8 55,-15 77,-15 c37,0 41,2 38,22 c-4,32 -114,107 -155,108 c-27,0 -36,6 -53,38 c-11,20 -28,48 -37,61 l-18,24 l30,-8 c17,-4 61,-9 99,-12 l69,-5 l-7,29 c-17,68 -93,116 -181,116 c-53,-1 -64,3 -96,31 c-19,17 -43,36 -53,41 c-11,7 -15,16 -10,28 c8,21 97,68 174,91 c30,9 66,25 80,36 c21,17 36,20 89,17 c54,-3 67,-7 86,-29 zm-2093,-116 c34,-14 134,-159 126,-183 c-2,-5 -45,31 -97,82 c-72,69 -91,93 -80,100 c16,10 27,10 51,1 zm2450,-111 c25,-22 30,-33 22,-41 c-14,-14 -39,-3 -68,28 c-17,20 -15,42 4,42 c6,0 24,-13 42,-29 zm869,-33 c22,-12 39,-25 39,-29 c0,-16 -56,-50 -108,-65 c-46,-14 -56,-14 -63,-3 c-13,20 0,92 19,107 c24,18 70,15 113,-10 zm153,-161 c19,-23 49,-72 65,-107 c17,-36 49,-99 71,-140 c63,-117 90,-211 90,-308 c0,-45 -2,-82 -5,-82 c-3,0 -23,9 -44,20 c-22,11 -57,22 -79,26 c-33,5 -44,2 -61,-15 c-24,-24 -25,-22 -36,44 c-15,89 -50,122 -142,131 l-60,7 l-21,59 c-12,33 -20,64 -17,69 c9,14 54,-9 103,-51 c24,-22 49,-40 53,-40 c21,0 7,69 -21,112 c-34,51 -60,71 -105,82 c-40,10 -115,84 -115,113 c0,20 12,26 103,54 c56,17 113,40 127,50 c38,28 55,23 94,-24 zm646,-108 c25,-11 77,-24 117,-28 c60,-6 79,-12 110,-38 c47,-37 57,-69 20,-59 c-14,3 -32,8 -40,12 c-18,6 -117,-72 -134,-107 c-12,-22 -10,-24 15,-30 c46,-11 132,-10 154,2 c12,6 32,24 46,40 c13,16 28,29 33,29 c25,0 41,-75 37,-165 c-6,-130 -37,-188 -177,-332 l-109,-112 l-23,47 c-12,26 -39,77 -61,114 c-44,77 -46,88 -17,114 c17,16 20,26 14,64 c-8,56 -36,119 -62,143 c-20,17 -21,17 -43,-35 c-13,-29 -25,-79 -28,-111 c-5,-63 -7,-64 -71,-33 c-30,14 -36,26 -50,101 c-6,33 -24,96 -41,140 c-35,95 -40,180 -12,214 c40,48 242,67 322,30 zm-1015,-54 c14,-13 25,-30 25,-38 c0,-7 -19,-31 -41,-52 c-67,-64 -119,-135 -119,-161 c0,-21 5,-24 35,-24 c72,0 145,56 145,112 c0,30 19,30 34,0 c27,-52 22,-92 -18,-156 c-34,-57 -48,-116 -26,-116 c26,0 78,30 94,54 c14,22 20,25 32,15 c20,-16 18,-55 -6,-118 l-21,-53 l21,-39 c11,-22 20,-55 20,-74 c0,-54 27,-45 54,18 c38,85 38,100 11,173 c-40,105 -29,141 20,64 c26,-41 116,-97 136,-84 c11,6 89,-62 89,-78 c0,-4 -33,-23 -73,-41 c-66,-31 -74,-37 -86,-75 c-12,-34 -12,-50 0,-101 c7,-34 17,-61 22,-61 c5,0 29,19 52,43 c31,31 47,58 60,102 c9,33 22,66 28,74 c13,15 77,45 83,38 c2,-2 -5,-27 -16,-55 c-23,-60 -26,-102 -7,-102 c6,0 26,9 42,20 c17,11 33,20 36,20 c15,0 17,-48 7,-116 l-11,-72 l66,-132 c60,-117 79,-170 61,-170 c-3,0 -30,21 -60,46 c-44,38 -54,52 -54,78 c0,62 -82,158 -110,129 c-5,-4 -12,-25 -15,-45 c-6,-32 -3,-40 19,-61 c24,-22 36,-57 19,-57 c-4,0 -33,7 -66,17 c-46,13 -61,22 -69,42 c-27,71 -43,92 -83,111 c-23,11 -44,20 -48,20 c-4,0 -7,-20 -7,-44 c0,-36 5,-49 25,-64 c14,-11 25,-25 25,-31 c0,-19 -61,-12 -97,10 c-25,16 -44,20 -69,16 c-39,-7 -124,-53 -124,-67 c0,-18 83,-70 110,-70 c15,0 47,9 71,20 c47,21 99,26 99,10 c0,-5 -21,-21 -47,-34 c-27,-13 -59,-36 -73,-51 c-24,-26 -25,-27 -6,-41 c48,-34 136,-4 196,67 c36,43 46,49 81,49 c28,0 39,-4 39,-15 c0,-8 -6,-15 -14,-15 c-33,0 -68,-45 -73,-94 c-6,-47 -5,-48 18,-41 c47,14 119,58 149,91 c17,19 37,34 46,34 c46,0 110,-80 144,-181 c18,-53 21,-77 16,-139 c-14,-153 -26,-174 -219,-376 c-101,-106 -252,-234 -275,-234 c-14,0 -32,80 -32,137 c0,82 40,223 63,223 c5,0 25,-13 44,-30 c25,-22 44,-30 73,-30 c21,0 42,5 45,10 c4,6 -7,33 -25,59 c-22,35 -43,54 -70,65 c-36,14 -40,19 -40,51 c0,45 18,45 63,0 c25,-25 44,-35 66,-35 c40,0 101,25 101,41 c0,7 -20,32 -45,55 c-53,48 -47,54 41,47 c61,-6 62,-5 105,34 c47,44 46,57 -7,79 c-48,20 -79,17 -127,-10 c-23,-13 -66,-27 -96,-30 l-54,-7 l6,31 c8,36 -8,74 -39,95 c-22,14 -24,13 -49,-28 c-28,-48 -31,-84 -13,-133 c10,-29 9,-37 -15,-73 c-15,-23 -31,-41 -36,-41 c-5,0 -20,19 -33,42 c-31,57 -64,75 -115,63 c-27,-7 -39,-16 -41,-30 c-4,-31 55,-93 118,-123 c75,-37 82,-60 46,-148 c-14,-36 -33,-94 -41,-127 c-13,-57 -13,-64 5,-105 c31,-70 27,-155 -10,-217 c-39,-66 -46,-74 -104,-118 c-39,-29 -58,-37 -92,-37 c-80,0 -213,68 -243,123 c-12,22 -11,36 4,101 c12,52 16,98 13,152 c-8,129 32,282 137,519 c34,78 66,152 70,165 c4,14 16,37 26,52 c14,18 19,44 19,87 c0,58 -1,61 -24,61 c-47,0 -69,-31 -74,-104 c-2,-36 -7,-66 -11,-66 c-4,0 -22,11 -41,25 c-36,27 -72,31 -116,15 c-23,-9 -32,-6 -71,24 c-60,47 -84,80 -90,125 c-5,36 -3,39 27,49 c41,15 62,4 119,-60 c36,-40 104,-88 126,-88 c3,0 5,18 5,40 c0,49 -44,103 -98,121 c-53,17 -56,23 -28,56 c34,41 50,43 132,22 c56,-15 80,-17 123,-9 c30,6 56,10 58,10 c1,0 0,7 -4,15 c-9,25 -63,49 -123,55 l-55,5 l23,23 c25,25 75,29 149,10 c44,-11 50,-9 100,18 c29,15 53,31 53,34 c0,15 -153,100 -181,100 c-4,0 -43,-31 -85,-69 c-43,-39 -81,-68 -86,-65 c-4,3 -5,23 -2,45 c7,44 -20,133 -39,126 c-6,-2 -20,-15 -31,-30 c-15,-21 -19,-41 -18,-104 c0,-68 -3,-83 -25,-115 c-14,-21 -32,-38 -39,-38 c-19,0 -18,61 1,124 c17,55 15,61 -15,51 c-36,-11 -80,-82 -80,-130 c0,-64 -46,-105 -69,-62 c-27,52 -30,87 -12,130 c24,53 55,82 111,102 c40,14 130,88 130,107 c0,12 -67,27 -92,20 c-13,-3 -38,-14 -55,-25 l-33,-19 l0,26 c0,34 53,93 91,101 c35,8 92,-26 140,-84 c24,-30 31,-33 39,-21 c21,32 8,73 -38,122 c-27,29 -27,35 -2,38 c43,6 61,-2 90,-42 c31,-43 124,-128 141,-128 c16,0 10,113 -9,150 c-27,54 -73,75 -157,73 c-38,-1 -78,0 -89,3 c-16,5 -15,9 13,38 c30,30 31,36 31,114 c0,45 -3,82 -6,82 c-3,0 -21,-7 -39,-16 c-61,-28 -115,-120 -115,-192 c0,-43 -9,-56 -64,-96 c-22,-17 -47,-47 -58,-72 c-10,-24 -22,-44 -26,-44 c-4,0 -13,34 -20,77 c-6,42 -14,79 -17,81 c-12,12 -76,-65 -91,-110 c-15,-45 -37,-68 -65,-68 c-18,0 -4,191 19,267 c26,82 52,121 118,182 c61,56 101,71 189,71 c71,0 111,19 198,91 c70,58 112,65 152,24 zm-1703,-290 c21,-49 46,-123 54,-164 c9,-41 27,-104 41,-140 c24,-64 26,-76 30,-336 c2,-148 2,-279 -1,-291 c-3,-11 -17,-33 -30,-47 c-21,-22 -34,-27 -75,-27 c-43,0 -57,6 -108,45 c-69,51 -140,125 -152,158 c-5,13 -17,64 -26,113 c-14,76 -15,100 -4,169 c17,116 53,227 94,293 c19,32 35,65 35,75 c0,15 48,190 65,235 c12,33 40,2 77,-83 zm-2066,28 c-2,-10 -8,-38 -11,-63 c-11,-66 -21,-80 -60,-80 c-18,0 -55,-9 -81,-20 c-26,-11 -49,-19 -51,-16 c-2,2 -7,20 -10,40 c-5,31 -1,42 23,67 c35,37 74,59 106,59 c13,1 34,7 48,15 c33,19 42,18 36,-2 zm4590,-238 c33,-13 36,-18 29,-42 c-3,-16 -10,-57 -15,-93 c-4,-36 -11,-73 -15,-82 c-11,-27 16,-22 63,11 c26,19 43,41 47,60 c8,39 18,39 44,2 c65,-90 77,-189 40,-302 c-18,-53 -23,-94 -26,-234 c-4,-188 -8,-215 -26,-215 c-8,0 -17,28 -25,81 c-6,44 -26,119 -43,167 c-110,304 -119,343 -119,525 c0,75 2,137 5,137 c3,0 22,-7 41,-15 zm-1376,-298 c-24,-98 -26,-100 -59,-83 c-16,9 -31,22 -34,30 c-8,20 15,108 37,140 l17,27 l26,-32 c26,-30 26,-32 13,-82 zm-680,83 c45,-23 79,-25 126,-8 c27,10 37,9 59,-6 l27,-18 l-61,-62 c-33,-34 -61,-66 -61,-72 c0,-6 12,-16 26,-23 c26,-11 26,-12 9,-39 c-10,-15 -27,-37 -39,-50 c-19,-22 -21,-22 -34,-5 c-46,61 -129,262 -119,288 c8,20 20,19 67,-5 zm440,-175 c13,-24 11,-28 -37,-78 c-27,-29 -60,-65 -72,-82 c-21,-28 -21,-30 -4,-36 c10,-4 45,-8 79,-8 c74,-1 99,20 113,93 c5,26 13,52 18,57 c17,17 71,-38 119,-120 c93,-157 131,-212 201,-290 c122,-136 140,-194 98,-306 c-15,-38 -30,-97 -33,-130 c-8,-69 -23,-78 -87,-51 l-36,16 l36,65 c31,56 36,71 30,104 c-10,58 -23,65 -73,35 c-33,-20 -45,-35 -59,-74 c-10,-28 -23,-50 -29,-50 c-21,0 -74,80 -74,113 c0,8 18,22 40,32 c23,10 55,34 72,53 c28,33 30,39 26,99 c-3,41 -10,69 -21,80 c-15,15 -19,13 -61,-28 c-35,-36 -46,-54 -51,-92 c-5,-30 -12,-47 -21,-47 c-19,0 -27,42 -20,104 c7,51 5,55 -32,102 c-59,74 -79,89 -96,75 c-8,-7 -21,-32 -30,-56 c-21,-62 -7,-105 53,-164 c45,-43 70,-86 57,-98 c-3,-3 -26,9 -52,26 c-53,35 -95,39 -150,16 c-31,-13 -34,-17 -24,-35 c16,-30 79,-69 140,-87 c87,-25 108,-39 136,-94 c14,-28 23,-53 20,-56 c-2,-3 -20,0 -38,6 c-24,8 -46,8 -83,-2 c-67,-16 -70,-38 -10,-76 c58,-37 105,-45 165,-30 c46,12 52,11 119,-19 c39,-18 84,-32 101,-32 c41,0 54,-28 46,-104 c-8,-79 -37,-136 -96,-189 c-41,-37 -64,-48 -142,-70 c-114,-31 -223,-42 -277,-27 c-51,13 -91,61 -134,160 c-32,74 -32,76 -33,245 c0,94 -4,217 -9,275 c-4,58 -9,123 -10,145 c-4,82 15,283 34,356 c22,86 125,286 150,292 c9,3 19,5 22,6 c3,0 12,-10 19,-24 zm635,-504 c36,-21 43,-46 19,-72 c-22,-25 -31,-24 -40,4 c-3,12 -24,41 -45,64 c-22,24 -39,45 -39,48 c0,7 65,-20 105,-44 zm1544,-20 c10,-10 31,-46 46,-80 c25,-55 32,-62 68,-72 l40,-10 l-7,-46 c-3,-25 -6,-52 -6,-61 c0,-12 -9,-13 -52,-7 c-29,5 -136,9 -238,10 c-235,3 -240,3 -240,16 c0,20 115,140 169,176 c48,32 173,92 194,93 c4,0 16,-9 26,-19 zm-3794,-105 c54,-39 63,-50 88,-116 c15,-40 26,-74 24,-76 c-2,-2 -41,10 -88,26 c-46,17 -85,30 -85,30 c-1,0 -4,21 -7,48 c-3,26 -8,59 -12,74 c-8,29 -1,58 13,58 c4,0 35,-20 67,-44 zm556,-168 c59,-74 89,-124 117,-193 c24,-59 24,-60 6,-111 c-16,-49 -16,-56 -1,-117 c11,-45 14,-87 10,-135 c-4,-50 -1,-83 10,-116 c9,-25 12,-48 8,-50 c-4,-3 -27,4 -50,16 c-103,51 -182,220 -268,576 c-4,17 -1,22 16,22 c14,0 31,-17 55,-53 c36,-57 82,-100 97,-91 c5,3 9,28 9,55 c0,73 -42,155 -86,169 c-19,7 -37,16 -40,22 c-8,12 43,58 63,58 c7,0 31,-24 54,-52 zm2273,-580 c13,-19 23,-68 13,-68 c-4,0 -101,-37 -142,-55 l-40,-17 l56,58 c31,33 61,69 68,82 c15,28 26,28 45,0 zm-1934,-1562 c-17,-216 -21,-246 -34,-246 c-20,0 -36,47 -36,106 c0,30 -5,64 -10,74 c-17,31 4,130 41,195 c30,53 33,56 41,35 c5,-13 4,-85 -2,-164 z" id="svg_2" fill="#2b7564" fill-opacity="1"/>
</g></g></svg>